<svg width="167" height="40" viewBox="0 -5 167 40" fill="none" xmlns="http://www.w3.org/2000/svg">
<path d="M77.328 10.25C77.328 4.75 73.7447 0.583333 66.328 0.583333H51.4114V29.3333H58.4114V6.83333H66.328C69.2447 6.83333 70.328 8.5 70.328 10.4167C70.328 12.4167 69.2447 14 66.328 14H59.578L69.2447 29.3333H77.2447C77.2447 29.3333 70.6614 19 70.7447 19C74.7447 18.0833 77.328 15.25 77.328 10.25ZM39.7447 0.583333H46.7447V29.3333H39.7447V0.583333ZM17.328 0.583333L2.66138 29.4167H10.578L12.9114 24.5833H24.7447L21.828 18.5H15.9114L20.2447 9.66667H20.328L30.1614 29.4167H38.2447L23.578 0.583333H17.328ZM102.911 14.4167C105.161 13.1667 106.328 11.25 106.328 8.33333C106.328 3.66667 102.828 0.583333 97.078 0.583333H80.6614V29.3333H97.6614C103.578 29.3333 107.495 26.1667 107.495 21.25C107.578 17.9167 105.661 15.4167 102.911 14.4167ZM87.6614 6.66667H96.9947C98.4114 6.66667 99.4947 7.75 99.4947 9.16667C99.4947 10.5833 98.4114 11.6667 96.9947 11.6667H87.6614V6.66667ZM97.2447 23.3333H87.6614V17.5H97.2447C98.9114 17.5 100.245 18.75 100.245 20.4167C100.245 22.0833 98.9114 23.3333 97.2447 23.3333ZM129.661 16.6667C129.661 21 127.661 23.4167 123.661 23.4167C119.745 23.4167 117.745 21 117.745 16.6667V0.583333H110.578V16.1667C110.578 25.0833 115.245 30 123.745 30C132.245 30 136.911 25.0833 136.911 16.1667V0.583333H129.745V16.6667H129.661ZM155.578 12.0833C148.911 10.5 147.495 10.3333 147.495 8.41667C147.495 6.91667 149.161 6.25 151.995 6.25C155.745 6.25 159.661 7.16667 161.911 8.58333L164.161 2.75C161.161 1.08333 156.995 0 151.995 0C144.578 0 140.411 3.66667 140.411 8.66667C140.411 14 143.495 16.1667 150.661 17.6667C156.245 18.9167 157.411 19.6667 157.411 21.25C157.411 22.9167 155.911 23.6667 152.828 23.6667C148.411 23.6667 144.495 22.5833 141.328 20.8333L139.161 27C142.661 28.8333 147.828 30 152.995 30C160.245 30 164.578 26.6667 164.578 21C164.661 16.4167 161.745 13.5 155.578 12.0833Z" fill="#B1B5C4"/>
</svg>
