<svg width="100" height="32" viewBox="-10 0 100 32" fill="B1B5C4" xmlns="http://www.w3.org/2000/svg">
<g clip-path="url(#clip0_9_906)">
<path d="M15.9405 4.08564H20.5686C21.8384 4.08564 23.4468 4.38833 23.4468 6.54601C23.4468 8.70375 21.1477 9.58299 19.4413 9.58299H15.9405V4.08564ZM15.9405 12.5146H18.577C22.9111 12.5146 25.1184 13.462 25.1184 15.998C25.1184 18.245 23.3476 19.1949 20.5686 19.1949H16.3498L11.5258 22.5729V22.5742L20.5363 22.5717C25.9319 22.5717 29.5642 20.6285 29.5642 16.1331C29.5642 12.212 26.3499 10.6718 23.4803 10.6718C25.4632 10.6718 27.8057 8.89475 27.8057 5.88133C27.8057 2.8704 25.0515 0.70639 21.9091 0.70639H12.7126H10.7185L11.5258 2.49833V20.9993L15.9405 17.9077V12.5146Z" fill="#B1B5C4"/>
<path d="M36.8302 4.08564H39.8374C41.0775 4.08564 47.4057 4.39956 47.4057 11.6403C47.4057 19.9018 39.8374 19.1924 39.8374 19.1924L37.2406 19.1949L32.4142 22.5729V22.5742H41.0775C46.4744 22.5742 52.0052 19.2544 52.0052 11.6403C52.0052 4.888 47.175 0.70639 41.0775 0.70639H31.6082L32.4142 2.49833V20.9993L36.8302 17.9077V4.08564Z" fill="#B1B5C4"/>
<path d="M58.6459 11.6395C58.6459 5.45642 62.9056 3.71906 65.6648 3.71906C68.424 3.71906 72.685 5.45642 72.685 11.6395C72.685 17.8226 68.424 19.56 65.6648 19.56C62.9056 19.56 58.6459 17.8226 58.6459 11.6395ZM54.0452 11.6395C54.0452 20.3635 61.0963 22.8152 65.6648 22.8152C70.2333 22.8152 77.2845 20.3635 77.2845 11.6395C77.2845 2.91548 70.2333 0.465057 65.6648 0.465057C61.0963 0.465057 54.0452 2.91548 54.0452 11.6395Z" fill="#B1B5C4"/>
<path d="M1.58105 0.706909V27.9653L5.89408 24.9445V0.706909H1.58105Z" fill="#B1B5C4"/>
<path d="M6.69967 25.9524L1.58057 29.535H77.0426V25.9524H6.69967Z" fill="#B1B5C4"/>
</g>
<defs>
<clipPath id="clip0_9_906">
<rect width="76.875" height="30" fill="white" transform="translate(0.994873)"/>
</clipPath>
</defs>
</svg>
