<svg width="51" height="50" viewBox="0 0 51 50" fill="none" xmlns="http://www.w3.org/2000/svg">
<g clip-path="url(#clip0_9_929)">
<path fill-rule="evenodd" clip-rule="evenodd" d="M23.1518 0.0706457C26.8709 -0.208416 30.6538 0.340321 34.1295 1.69826C40.3585 4.11126 45.5144 9.13828 48.0911 15.3002C50.6441 21.3281 50.6831 28.3653 48.2056 34.4237C46.1598 39.4796 42.3915 43.8043 37.6952 46.5694C35.1651 48.063 32.3645 49.0961 29.4714 49.61C25.6089 50.2962 21.5853 50.0773 17.827 48.9501C12.2868 47.3097 7.40233 43.6389 4.20472 38.8367C2.62882 36.4771 1.46434 33.8453 0.778983 31.0921C-0.204903 27.138 -0.215071 22.9439 0.766294 18.9889C2.00804 13.9339 4.89512 9.31053 8.86534 5.94928C12.8475 2.54552 17.9254 0.447218 23.1518 0.0706457ZM24.3121 0.87637C23.184 0.909482 22.0585 1.0189 20.9457 1.20801C16.3546 1.97471 12.0146 4.13333 8.616 7.31139C5.04443 10.6142 2.49568 15.0153 1.46521 19.7734C0.600039 23.7157 0.729011 27.875 1.8536 31.7529C3.03937 35.8783 5.37859 39.6534 8.50745 42.5881C10.6601 44.6169 13.1868 46.2496 15.928 47.3641C21.9161 49.8187 28.8989 49.7177 34.8063 47.0681C37.4807 45.8815 39.9327 44.1996 42.0107 42.1411C45.8536 38.3541 48.3753 33.2481 48.9995 27.8843C49.4592 24.038 48.9944 20.0788 47.6204 16.4545C45.3591 10.4242 40.5654 5.40471 34.6554 2.85179C31.4103 1.43614 27.8489 0.768691 24.3121 0.87637Z" fill="#B1B5C4"/>
<path fill-rule="evenodd" clip-rule="evenodd" d="M23.156 1.93493C26.4782 1.66691 29.8598 2.11387 32.9896 3.26401C36.9022 4.68974 40.4059 7.20451 43.0225 10.4411C44.9631 12.8321 46.421 15.6157 47.2718 18.5758C48.3116 22.1712 48.4541 26.0193 47.7009 29.685C46.6662 34.7927 43.8197 39.4991 39.8037 42.8154C37.6205 44.6296 35.0998 46.0375 32.4077 46.9408C28.6962 48.1919 24.6657 48.4658 20.8151 47.7568C18.1645 47.2691 15.6022 46.3082 13.2826 44.9375C10.4369 43.2581 7.9578 40.9613 6.06469 38.2532C4.43282 35.9249 3.23609 33.2931 2.56099 30.5306C1.59918 26.6121 1.67974 22.4409 2.80268 18.5648C4.20468 13.6684 7.29365 9.28509 11.4124 6.29363C14.8254 3.79407 18.9381 2.2657 23.156 1.93493ZM21.6539 3.12235C21.6573 5.15365 21.6462 7.18591 21.6598 9.21721C22.0644 9.21043 22.469 9.21634 22.8736 9.21295C22.8744 7.79653 22.8693 6.3801 22.8761 4.96454C23.4087 6.38184 23.9431 7.79826 24.4791 9.21469C24.9218 9.21382 25.3655 9.21382 25.8082 9.21469C26.3434 7.79913 26.8803 6.38436 27.4096 4.96628C27.4214 6.38184 27.4121 7.79653 27.4146 9.21217C27.8191 9.21721 28.2238 9.20956 28.6283 9.21721C28.6402 7.18591 28.6309 5.15365 28.6334 3.12235C28.0236 3.12062 27.4137 3.12322 26.8039 3.12062C26.2466 4.56511 25.6988 6.0137 25.144 7.45898C24.5876 6.0137 24.0423 4.56338 23.4817 3.11983C22.8718 3.124 22.2629 3.11983 21.6539 3.12235ZM38.9878 7.77532C37.7138 9.4131 36.4407 11.0518 35.1668 12.6896C35.54 13.1459 35.9106 13.6048 36.2872 14.0577C37.4967 13.5564 38.7079 13.0603 39.9182 12.5624C39.1896 13.6523 38.4373 14.7269 37.7036 15.8134C38.0743 16.2705 38.4398 16.7302 38.8096 17.1874C40.6773 16.2833 42.5433 15.3774 44.4108 14.4725C44.0971 14.084 43.7841 13.6955 43.4686 13.3079C42.2828 13.8703 41.0971 14.4334 39.9114 14.9966C40.6748 13.9143 41.4389 12.8313 42.2049 11.7507C41.8706 11.3308 41.5323 10.9152 41.1939 10.4996C39.9751 11.0221 38.757 11.5463 37.5382 12.0679C38.3347 11.0238 39.1353 9.98226 39.93 8.9365C39.6154 8.54976 39.3024 8.16215 38.9878 7.77532ZM9.31574 9.54207C8.30552 10.7405 7.29965 11.9424 6.29282 13.1434C7.84926 14.4504 9.40647 15.7565 10.9646 17.0627C12.0128 15.8142 13.0612 14.5649 14.1086 13.3147C14.4064 12.9543 14.6642 12.525 14.6871 12.0458C14.7126 11.4589 14.3182 10.9237 13.827 10.6404C13.3318 10.3563 12.699 10.4132 12.2232 10.7099C12.3411 10.3385 12.3292 9.90596 12.0943 9.5811C11.8025 9.10354 11.314 8.63449 10.7152 8.66508C10.1409 8.71853 9.68041 9.12648 9.31574 9.54207ZM23.2382 10.3275C20.2476 10.682 17.3834 11.9916 15.1502 14.0111C13.1765 15.7829 11.6914 18.0941 10.9111 20.6301C9.98493 23.619 10.0392 26.9031 11.0714 29.858C11.8873 32.2125 13.3173 34.3491 15.1739 36.0106C17.0967 37.7383 19.4809 38.9495 22.0135 39.472C25.2069 40.1395 28.6198 39.7213 31.5468 38.2735C34.2228 36.9631 36.4823 34.8223 37.936 32.2211C39.4339 29.568 40.0624 26.4417 39.7324 23.4137C39.4788 21.0007 38.6129 18.6555 37.238 16.6565C35.7486 14.4767 33.6655 12.7083 31.2712 11.5946C28.7827 10.4301 25.9643 9.9933 23.2382 10.3275Z" fill="#B1B5C4"/>
<path fill-rule="evenodd" clip-rule="evenodd" d="M9.87896 10.5183C10.1385 10.1782 10.6796 10.2638 10.9484 10.5479C11.1817 10.7634 11.225 11.1553 11.0163 11.4012C10.4294 12.1162 9.82551 12.8169 9.23775 13.5301C8.86283 13.2273 8.49894 12.9127 8.12915 12.6057C8.71187 11.9093 9.29537 11.2138 9.87896 10.5183Z" fill="#B1B5C4"/>
<path fill-rule="evenodd" clip-rule="evenodd" d="M19.1951 12.4597C21.0152 11.6065 23.0228 11.1722 25.0312 11.1663C25.0406 15.7769 25.0346 20.3884 25.0346 24.9989C20.4249 25.0023 15.8151 24.9989 11.2054 25.0007C11.1994 22.3841 11.9569 19.7709 13.3699 17.5682C14.7753 15.3596 16.821 13.5641 19.1951 12.4597Z" fill="#B1B5C4"/>
<path fill-rule="evenodd" clip-rule="evenodd" d="M11.8713 11.9975C12.1207 11.6676 12.6567 11.6489 12.9451 11.9381C13.2241 12.1798 13.3149 12.643 13.0672 12.939C12.4472 13.6878 11.817 14.4292 11.1945 15.1755C10.8052 14.8549 10.4261 14.5233 10.0325 14.2087C10.6262 13.4563 11.2614 12.7371 11.8713 11.9975Z" fill="#B1B5C4"/>
<path fill-rule="evenodd" clip-rule="evenodd" d="M25.0364 25.0007C29.6462 24.9998 34.2568 24.9998 38.8665 25.0007C38.8742 27.859 37.9649 30.7104 36.2966 33.0319C34.7427 35.2116 32.5443 36.9283 30.0465 37.8943C28.4545 38.5161 26.7446 38.8299 25.0364 38.8308C25.0355 34.221 25.0355 29.6112 25.0364 25.0007Z" fill="#B1B5C4"/>
</g>
<defs>
<clipPath id="clip0_9_929">
<rect width="49.9996" height="50" fill="white" transform="translate(0.0356445)"/>
</clipPath>
</defs>
</svg>
