<svg width="160" height="30" viewBox="0 0 160 30" fill="none" xmlns="http://www.w3.org/2000/svg">
<g clip-path="url(#clip0_9_951)">
<path d="M62.7364 5.80153H67.1327V7.30343C67.6047 6.89249 69.1288 5.43321 71.9437 5.43321C75.2561 5.43321 77.8877 7.8785 77.8877 11.7182V21.6851H73.244V12.9536C73.244 10.813 72.2001 9.54326 70.3108 9.54326C68.4806 9.54326 67.3795 10.7405 67.3795 12.9536V21.6851H62.7364V5.80153ZM106.968 13.743C106.968 9.16094 110.637 5.43321 115.442 5.43321C120.247 5.43321 123.914 9.16094 123.914 13.743C123.914 18.3238 120.246 22.0471 115.442 22.0471C110.637 22.0471 106.968 18.3238 106.968 13.743ZM111.552 13.743C111.552 15.937 113.191 17.7424 115.47 17.7424C117.752 17.7424 119.394 15.937 119.394 13.743C119.394 11.5477 117.752 9.74364 115.47 9.74364C113.192 9.74364 111.552 11.5477 111.552 13.743ZM43.1931 13.7462C43.1931 9.16221 46.8642 5.43448 51.6651 5.43448C56.4717 5.43448 60.1416 9.16221 60.1416 13.7462C60.1416 18.3257 56.4717 22.0477 51.6651 22.0477C46.8636 22.0483 43.1931 18.3257 43.1931 13.7462ZM47.7771 13.7449C47.7771 15.9402 49.4164 17.7455 51.6975 17.7455C53.98 17.7455 55.6193 15.9402 55.6193 13.7449C55.6193 11.5477 53.98 9.74555 51.6975 9.74555C49.4164 9.74555 47.7771 11.5477 47.7771 13.7449ZM146.441 4.04198H151.147V0H146.441V4.04198ZM146.441 21.6851H151.147V5.80153H146.441V21.6851ZM154.777 21.6851H159.486V0H154.777V21.6851ZM131.1 21.6851H126.636V0H131.151V7.06234C131.375 6.89758 132.837 5.43321 136.033 5.43321C140.212 5.43321 143.7 9.02226 143.7 13.7462C143.7 18.4612 139.985 22.0503 135.979 22.0503C132.932 22.0503 131.479 20.7118 131.151 20.4625L131.1 21.6851ZM138.93 13.7341C138.93 11.5006 137.236 9.76781 134.969 9.76781C132.714 9.76781 130.983 11.4847 130.983 13.7468C130.983 15.9803 132.691 17.7131 134.963 17.7131C137.214 17.7125 138.93 15.9739 138.93 13.7341ZM15.8152 21.6851H21.2599L26.1543 15.395L29.2058 18.486L22.223 27.229H27.6867L32.1581 21.4345L40.5741 30H47.1702L35.0741 17.8365L44.6002 5.80153H39.1333L32.0932 14.841L29.0468 11.7786L36.8782 1.91603H31.4259L26.0773 8.79771L23.1727 5.80153H16.6676L23.2198 12.4167L15.8152 21.6851ZM0.452637 0V21.6851H14.7344V17.6387H5.31142V12.4574H14.3114V8.53499H5.31142V4.04008H14.7344V0H0.452637ZM81.6072 0V21.6851H86.1766V5.31171H86.3839L90.3152 21.6858H95.4482L99.4717 5.31171H99.6797V21.6858H104.248V0H96.7872L93.0722 15.8263H92.9068L89.2841 0H81.6072Z" fill="#B1B5C4"/>
</g>
<defs>
<clipPath id="clip0_9_951">
<rect width="159.033" height="30" fill="white" transform="translate(0.452637)"/>
</clipPath>
</defs>
</svg>
