<svg width="115" height="30" viewBox="0 0 115 30" fill="none" xmlns="http://www.w3.org/2000/svg">
<path d="M37.1193 8.08576V0.660018H40.7695L40.7035 1.39929H38.0632V4.14517H40.5055V4.91744H38.0632V8.08576H37.1193ZM44.9807 4.66662C44.9807 4.88444 44.9807 5.07586 44.9807 5.24088C44.9807 5.40589 44.9807 5.54451 44.9411 5.66332H42.3008C42.2938 6.13365 42.4321 6.59469 42.6969 6.98345C42.8187 7.12867 42.973 7.24318 43.1473 7.31772C43.3216 7.39225 43.511 7.42472 43.7002 7.41249C43.8385 7.41645 43.9766 7.39863 44.1094 7.35969C44.2196 7.33058 44.326 7.28848 44.4263 7.23427C44.5187 7.18147 44.5913 7.12866 44.6573 7.08246L44.7893 6.96365L45.1127 7.57751L44.9477 7.72932C44.8631 7.81334 44.7649 7.88252 44.6573 7.93394C44.517 8.0147 44.3659 8.07473 44.2084 8.11216C43.9936 8.17119 43.7711 8.19788 43.5484 8.19137C43.2475 8.19722 42.9487 8.14105 42.6705 8.02635C42.4092 7.92183 42.1811 7.74847 42.0104 7.5247C41.8094 7.27153 41.6633 6.97931 41.5814 6.66662C41.4736 6.2575 41.4225 5.83551 41.4296 5.41249C41.4224 5.02204 41.4735 4.63271 41.5814 4.25738C41.6678 3.95772 41.8112 3.67757 42.0038 3.4323C42.1825 3.22163 42.4088 3.05647 42.6639 2.95045C42.9065 2.84954 43.1668 2.79793 43.4296 2.79863C43.6458 2.78556 43.8623 2.82084 44.0633 2.90191C44.2642 2.98297 44.4446 3.10778 44.5913 3.26728C44.8867 3.67095 45.0252 4.16835 44.9807 4.66662ZM43.3437 3.4983C43.1968 3.49557 43.0514 3.52979 42.9211 3.59784C42.7908 3.66588 42.6796 3.76557 42.5979 3.88774C42.3899 4.22537 42.2781 4.61335 42.2744 5.00985H44.1622C44.1666 4.95714 44.1666 4.90415 44.1622 4.85144C44.1622 4.78543 44.1622 4.71282 44.1622 4.63362C44.1806 4.33814 44.1043 4.04451 43.9444 3.79533C43.8763 3.70039 43.7859 3.62364 43.6812 3.57184C43.5764 3.52005 43.4605 3.49479 43.3437 3.4983ZM45.9048 5.57751C45.8882 5.12898 45.9553 4.68129 46.1028 4.25738C46.2161 3.93916 46.3962 3.64884 46.6309 3.40589C46.8364 3.19294 47.0899 3.03225 47.3701 2.93725C47.6337 2.84802 47.9104 2.80341 48.1886 2.80523C48.3314 2.79385 48.4749 2.79385 48.6177 2.80523C48.7192 2.82729 48.8186 2.85821 48.9147 2.89764V0.4752L49.7926 0.37619V8.08576H48.9939V7.55771C48.9939 7.60391 48.9279 7.65672 48.8751 7.73592C48.8055 7.82029 48.7257 7.89567 48.6375 7.96035C48.5226 8.0447 48.3958 8.11144 48.2612 8.15837C48.0908 8.21385 47.9124 8.24061 47.7332 8.23757C47.5059 8.23221 47.2817 8.18289 47.0731 8.09236C46.8437 7.98974 46.6439 7.83081 46.4923 7.63031C46.3134 7.38363 46.1814 7.1062 46.1028 6.81183C45.9776 6.41209 45.9109 5.99635 45.9048 5.57751ZM47.951 7.43889C48.0742 7.44274 48.1971 7.42487 48.314 7.38609C48.4143 7.35548 48.5099 7.31105 48.5979 7.25408C48.6696 7.20383 48.736 7.14632 48.7959 7.08246C48.8401 7.03803 48.8799 6.9894 48.9147 6.93724V3.74913C48.8298 3.69494 48.739 3.65065 48.6441 3.61711C48.5155 3.57952 48.382 3.56171 48.248 3.56431C48.0558 3.56169 47.8651 3.5976 47.687 3.66992C47.5057 3.73899 47.3462 3.8552 47.2249 4.00655C47.085 4.18962 46.9819 4.39809 46.9213 4.62041C46.8382 4.93241 46.8004 5.25475 46.8091 5.57751C46.8003 5.8795 46.8314 6.18133 46.9015 6.4752C46.9479 6.68489 47.033 6.88411 47.1523 7.06266C47.2462 7.19584 47.3707 7.3045 47.5154 7.37949C47.6551 7.42852 47.8033 7.44873 47.951 7.43889ZM54.4395 4.66662C54.4395 4.88664 54.4395 5.07806 54.4395 5.24088C54.4395 5.39929 54.4395 5.54451 54.3932 5.66332H51.753C51.744 6.13294 51.8799 6.59392 52.1424 6.98345C52.2656 7.12879 52.4211 7.24329 52.5965 7.31779C52.7718 7.39229 52.9622 7.42472 53.1523 7.41249C53.2907 7.41645 53.4288 7.39863 53.5616 7.35969C53.671 7.32821 53.7771 7.28621 53.8784 7.23427L54.1028 7.08246L54.2348 6.96365L54.5583 7.57751L54.3998 7.72932C54.3127 7.81031 54.215 7.87913 54.1094 7.93394C53.9669 8.01471 53.8135 8.07472 53.654 8.11216C53.4391 8.17119 53.2166 8.19788 52.9939 8.19137C52.6931 8.19666 52.3944 8.14051 52.116 8.02635C51.8566 7.91855 51.6293 7.74579 51.456 7.5247C51.2572 7.27107 51.1133 6.97885 51.0335 6.66662C50.9257 6.2575 50.8746 5.83551 50.8817 5.41249C50.8788 5.02138 50.9344 4.63203 51.0467 4.25738C51.1305 3.9567 51.2742 3.67606 51.4692 3.4323C51.6464 3.22009 51.8731 3.05464 52.1292 2.95045C52.3693 2.84885 52.6276 2.7972 52.8883 2.79863C53.0997 2.78867 53.3108 2.82484 53.5068 2.90462C53.7029 2.98441 53.8792 3.10591 54.0236 3.26068C54.3328 3.66099 54.4812 4.1625 54.4395 4.66662ZM52.8025 3.4983C52.6531 3.49204 52.5046 3.52463 52.3716 3.59289C52.2385 3.66114 52.1255 3.76273 52.0434 3.88774C51.8296 4.22273 51.7173 4.61244 51.72 5.00985H53.6012C53.6012 4.97025 53.6012 4.91744 53.6012 4.85144V4.63362C53.6333 4.3431 53.5733 4.04983 53.4296 3.79533C53.3581 3.69742 53.2633 3.61895 53.1538 3.56707C53.0443 3.51518 52.9235 3.49154 52.8025 3.4983ZM57.8718 3.68312C57.8282 3.65924 57.7816 3.64147 57.7332 3.63031C57.6368 3.61743 57.5391 3.61743 57.4428 3.63031C57.3232 3.62027 57.2029 3.63501 57.0893 3.67363C56.9757 3.71225 56.8713 3.7739 56.7827 3.85474C56.6389 3.9868 56.5262 4.14911 56.4527 4.32998V8.08576H55.6012V2.93725H56.3998V3.59731C56.4406 3.49585 56.4869 3.39669 56.5385 3.30028C56.5998 3.20551 56.673 3.119 56.7563 3.04286C56.8477 2.9682 56.9501 2.90809 57.0599 2.86464C57.1989 2.82226 57.3437 2.80221 57.489 2.80523C57.5874 2.78999 57.6876 2.78999 57.786 2.80523L57.984 2.93725L57.8718 3.68312ZM58.38 6.77223C58.3721 6.51086 58.4312 6.25181 58.5517 6.01975C58.6645 5.82243 58.823 5.65496 59.0137 5.5313C59.2155 5.40188 59.4392 5.31018 59.6738 5.26068C59.9477 5.2066 60.2263 5.18006 60.5055 5.18147H60.7761V4.68642C60.8118 4.36692 60.7296 4.04537 60.5451 3.78213C60.4591 3.69589 60.3558 3.62892 60.242 3.58568C60.1282 3.54243 60.0065 3.5239 59.885 3.53131C59.6528 3.52118 59.4228 3.58097 59.2249 3.70292C59.0822 3.79055 58.9455 3.88757 58.8157 3.99335L58.4527 3.41249L58.6705 3.22107C58.7742 3.14321 58.8846 3.07473 59.0005 3.01645C59.1414 2.94685 59.2897 2.89369 59.4428 2.85804C59.6259 2.81061 59.8147 2.78841 60.0038 2.79203C60.2368 2.76359 60.4733 2.78864 60.6951 2.86527C60.917 2.9419 61.1185 3.0681 61.2843 3.23428C61.5956 3.63839 61.7419 4.14561 61.6936 4.65342V7.00985C61.6936 7.23427 61.6936 7.4521 61.6936 7.66992C61.6936 7.88774 61.6936 8.01975 61.7332 8.09236H60.9015V7.5247C60.8694 7.60251 60.8273 7.67575 60.7761 7.74252C60.7157 7.82826 60.6422 7.90399 60.5583 7.96695C60.3485 8.13474 60.0876 8.22559 59.819 8.22437C59.6306 8.22476 59.4442 8.18658 59.2711 8.11216C59.1074 8.04345 58.9593 7.94243 58.8355 7.81513C58.7059 7.68304 58.6048 7.52579 58.5385 7.35309C58.4492 7.17132 58.3954 6.97417 58.38 6.77223ZM59.9642 7.4719C60.0743 7.47315 60.1837 7.45529 60.2876 7.41909C60.3763 7.39007 60.459 7.34535 60.5319 7.28708C60.5968 7.24073 60.6546 7.18514 60.7035 7.12206C60.7423 7.06909 60.7842 7.0184 60.8289 6.97025V5.82833H60.5517C60.2216 5.82058 59.8949 5.89545 59.6012 6.04616C59.4935 6.10937 59.4059 6.20185 59.3486 6.31285C59.2914 6.42384 59.2668 6.54881 59.2777 6.67322C59.2602 6.88769 59.3264 7.10063 59.4626 7.26728C59.5269 7.33493 59.6049 7.38815 59.6914 7.42343C59.7779 7.4587 59.8709 7.47522 59.9642 7.4719ZM63.8388 6.89764C63.8235 7.05316 63.8557 7.20967 63.9312 7.34649C63.969 7.39292 64.0177 7.42927 64.073 7.4523C64.1283 7.47533 64.1884 7.48433 64.248 7.4785C64.3138 7.48671 64.3803 7.48671 64.4461 7.4785L64.5715 7.43889L64.6441 8.09896L64.4064 8.18477C64.2482 8.21852 64.086 8.22963 63.9246 8.21777C63.6734 8.20655 63.4365 8.09759 63.2645 7.91414C63.053 7.64259 62.9559 7.29916 62.9939 6.95705V0.4752L63.8652 0.37619L63.8388 6.89764ZM74.083 0.67322V8.08576H73.1655V3.90094C73.1655 3.68312 73.1655 3.4851 73.1655 3.29368C73.1655 3.10226 73.1655 2.94385 73.1655 2.79863C73.1655 2.65342 73.1655 2.54781 73.1655 2.4686C73.1325 2.63362 73.0533 2.89764 72.9477 3.26728C72.8421 3.63692 72.7035 4.03295 72.5649 4.462L71.3371 8.08576H70.5913L69.3635 4.462C69.2249 4.03295 69.0929 3.63692 68.9807 3.26728C68.8685 2.89764 68.7959 2.60721 68.7629 2.4686H68.7299C68.7299 2.55441 68.7299 2.66662 68.7299 2.81183C68.7299 2.95705 68.7299 3.12206 68.7299 3.30028C68.7299 3.4785 68.7299 3.68312 68.7299 3.90094V8.08576H67.885V0.660018H68.9279L70.6837 5.78213C70.7629 6.01975 70.8289 6.25078 70.8949 6.4422C70.9454 6.63528 70.9829 6.83154 71.0071 7.02965C71.0191 6.83304 71.0523 6.63829 71.1061 6.4488C71.1721 6.22437 71.2381 5.99995 71.3173 5.78873L73.0731 0.653418L74.083 0.67322ZM76.4658 8.08576H75.5946V2.93725H76.4658V8.08576ZM76.0368 1.66992C75.9573 1.673 75.8779 1.65931 75.804 1.62974C75.7301 1.60018 75.6632 1.55539 75.6078 1.4983C75.501 1.3736 75.4445 1.21357 75.4493 1.04946C75.4414 0.88687 75.4984 0.727793 75.6078 0.607213C75.7221 0.497099 75.8747 0.435584 76.0335 0.435584C76.1923 0.435584 76.3449 0.497099 76.4592 0.607213C76.5686 0.727793 76.6256 0.88687 76.6177 1.04946C76.6225 1.21357 76.566 1.3736 76.4592 1.4983C76.4055 1.55405 76.3408 1.59808 76.2693 1.62761C76.1977 1.65715 76.1208 1.67155 76.0434 1.66992H76.0368ZM80.6573 8.08576V4.78543C80.6877 4.44758 80.6065 4.10906 80.4262 3.82173C80.346 3.72575 80.2447 3.64959 80.1302 3.59921C80.0157 3.54883 79.8911 3.52559 79.7662 3.53131C79.5299 3.519 79.2966 3.58897 79.1061 3.72932C78.9536 3.83598 78.8159 3.96251 78.6969 4.10556V8.06596H77.786V2.93725H78.5781V3.5181C78.6163 3.45094 78.6629 3.38885 78.7167 3.33329C78.7969 3.24091 78.8903 3.16084 78.9939 3.09566C79.1236 3.01666 79.2607 2.95034 79.4031 2.89764C79.5769 2.83659 79.7603 2.80751 79.9444 2.81183C80.1554 2.80879 80.3653 2.84228 80.5649 2.91084C80.7497 2.97686 80.9137 3.09075 81.0401 3.24088C81.1825 3.41248 81.2861 3.61289 81.3437 3.82833C81.4215 4.11651 81.4571 4.41444 81.4493 4.71282V8.08576H80.6573ZM83.7068 8.08576H82.8025V2.93725H83.6804L83.7068 8.08576ZM83.2711 1.66992C83.1916 1.673 83.1123 1.65931 83.0384 1.62974C82.9644 1.60018 82.8976 1.55539 82.8421 1.4983C82.7353 1.3736 82.6788 1.21357 82.6837 1.04946C82.6757 0.88687 82.7327 0.727793 82.8421 0.607213C82.9565 0.497099 83.1091 0.435584 83.2678 0.435584C83.4266 0.435584 83.5792 0.497099 83.6936 0.607213C83.8029 0.727793 83.8599 0.88687 83.852 1.04946C83.8568 1.21357 83.8004 1.3736 83.6936 1.4983C83.6361 1.55836 83.5661 1.60492 83.4884 1.6346C83.4108 1.66428 83.3276 1.67634 83.2447 1.66992H83.2711ZM87.2315 3.96695C87.1399 3.8659 87.0357 3.77715 86.9213 3.70292C86.7471 3.5829 86.5386 3.52268 86.3272 3.53131C86.1368 3.51858 85.9485 3.57743 85.7992 3.69632C85.7434 3.74334 85.6986 3.80196 85.6678 3.86807C85.637 3.93419 85.621 4.00623 85.621 4.07916C85.6152 4.1664 85.6268 4.25392 85.6551 4.33664C85.6834 4.41936 85.7279 4.49562 85.786 4.56101C85.9376 4.71621 86.1084 4.85151 86.2942 4.96365L86.6177 5.16167C86.9314 5.33125 87.2129 5.55467 87.4493 5.82173C87.6577 6.0887 87.7652 6.4206 87.753 6.75903C87.7567 6.95102 87.7205 7.14169 87.6466 7.31894C87.5728 7.4962 87.4629 7.65618 87.3239 7.78873C87.1595 7.93799 86.9665 8.05238 86.7566 8.12499C86.5467 8.19759 86.3243 8.22691 86.1028 8.21117C85.9182 8.21159 85.7342 8.18942 85.555 8.14517C85.4121 8.10691 85.273 8.05611 85.1391 7.99335C85.0334 7.94324 84.9337 7.88123 84.8421 7.80853C84.775 7.74809 84.7111 7.6842 84.6507 7.61711L85.0731 6.95705L85.2249 7.10226C85.293 7.16774 85.3683 7.22531 85.4493 7.27388C85.5397 7.33088 85.6374 7.3753 85.7398 7.40589C85.8611 7.44554 85.9885 7.46341 86.116 7.4587C86.3263 7.47564 86.5354 7.41455 86.7035 7.28708C86.7677 7.23858 86.8197 7.1757 86.8552 7.10349C86.8908 7.03127 86.9089 6.95172 86.9081 6.87124C86.9113 6.76158 86.8957 6.65217 86.8619 6.54781C86.8288 6.46018 86.7796 6.37957 86.7167 6.31018C86.6449 6.23374 86.5653 6.16515 86.479 6.10556L86.1556 5.88774L85.8322 5.68312C85.5442 5.50683 85.2877 5.28375 85.0731 5.02305C84.8862 4.76695 84.7909 4.45541 84.8025 4.13857C84.7989 3.95822 84.8356 3.77934 84.9098 3.61493C84.984 3.45051 85.0939 3.3047 85.2315 3.18807C85.3749 3.06684 85.5378 2.97087 85.7134 2.90424C85.8996 2.83721 86.0963 2.80369 86.2942 2.80523C86.4699 2.80181 86.6453 2.82179 86.8157 2.86464C87.046 2.92814 87.26 3.04072 87.4427 3.19467C87.5087 3.26068 87.5682 3.30688 87.6078 3.35309L87.2315 3.96695ZM90.9873 3.63031H89.8586V6.495C89.8356 6.75163 89.8835 7.00965 89.9972 7.24088C90.0537 7.31075 90.1268 7.36544 90.2098 7.40001C90.2927 7.43458 90.383 7.44795 90.4724 7.43889C90.5849 7.44345 90.6971 7.42549 90.8025 7.38609C90.8754 7.36393 90.9445 7.33053 91.0071 7.28708L91.1259 7.98675C91.0474 8.04544 90.9607 8.09215 90.8685 8.12536C90.696 8.19195 90.512 8.22337 90.3272 8.21777C90.1427 8.23169 89.9574 8.20524 89.7841 8.14027C89.6108 8.07529 89.4538 7.97335 89.3239 7.84154C89.0684 7.48598 88.9511 7.04956 88.9939 6.61381V3.63031H88.347V3.04946L89.0071 2.93725L89.0995 1.4983H89.8784V2.93725H91.1127L90.9873 3.63031ZM94.248 3.68312C94.2045 3.65924 94.1578 3.64147 94.1094 3.63031C94.013 3.61788 93.9154 3.61788 93.819 3.63031C93.6994 3.61945 93.5788 3.63381 93.4651 3.67247C93.3514 3.71113 93.2471 3.77322 93.1589 3.85474C93.013 3.98493 92.8999 4.14778 92.8289 4.32998V8.08576H91.9774V2.93725H92.7761V3.59731C92.8113 3.49353 92.8578 3.39392 92.9147 3.30028C92.976 3.20551 93.0492 3.119 93.1325 3.04286C93.223 2.96688 93.3257 2.90664 93.4361 2.86464C93.5751 2.82226 93.7199 2.80221 93.8652 2.80523C93.9613 2.78947 94.0594 2.78947 94.1556 2.80523L94.3338 2.85804L94.248 3.68312ZM98.5517 2.93725L96.9279 8.38939C96.8017 8.90473 96.5776 9.39101 96.2678 9.82173C96.1229 9.98605 95.9422 10.1149 95.7397 10.1985C95.5371 10.282 95.3181 10.318 95.0995 10.3036C95.0077 10.3059 94.9162 10.2925 94.8289 10.264C94.7778 10.2514 94.7289 10.2314 94.6837 10.2046V9.4521L94.8223 9.5049C94.8968 9.51335 94.9721 9.51335 95.0467 9.5049C95.1787 9.51281 95.3108 9.49079 95.4331 9.44051C95.5554 9.39021 95.6647 9.31295 95.753 9.21447C95.9469 8.94412 96.088 8.63954 96.1688 8.31678L96.2414 8.05276L94.5583 2.93725H95.4955L96.3074 5.80193C96.38 6.09896 96.4526 6.36959 96.5186 6.62701C96.5777 6.84309 96.6174 7.06398 96.6375 7.28708C96.661 7.06535 96.6962 6.84502 96.7431 6.62701C96.7959 6.37619 96.8619 6.09896 96.9411 5.80853L97.6936 2.93725H98.5517ZM39.1127 14.4884H38.0566V18.9438H37.1853V14.4884H36.5253V13.9009L37.1853 13.7887V12.7524C37.1801 12.5073 37.2203 12.2634 37.3041 12.033C37.3693 11.8468 37.4753 11.6777 37.6144 11.5379C37.7412 11.4081 37.8974 11.3107 38.0698 11.2541C38.247 11.1978 38.4318 11.1688 38.6177 11.1683C38.7776 11.1637 38.9368 11.1906 39.0863 11.2475C39.179 11.2758 39.2677 11.3158 39.3503 11.3663L39.1655 12.0858L38.9807 11.9933C38.8879 11.9588 38.7892 11.9431 38.6903 11.9471C38.6018 11.9411 38.513 11.9552 38.4307 11.9883C38.3484 12.0215 38.2747 12.0728 38.215 12.1386C38.0902 12.3494 38.0347 12.5942 38.0566 12.8382V13.7623H39.2183L39.1127 14.4884ZM39.6408 16.3564C39.6322 15.9411 39.6879 15.527 39.8058 15.1287C39.901 14.8213 40.0533 14.5347 40.2546 14.2838C40.4347 14.0746 40.6606 13.9097 40.9147 13.8019C41.1657 13.6974 41.4349 13.6435 41.7068 13.6435C41.9787 13.6435 42.2479 13.6974 42.4989 13.8019C42.7542 13.9075 42.9806 14.0727 43.1589 14.2838C43.3514 14.5364 43.4947 14.823 43.5814 15.1287C43.6936 15.528 43.747 15.9416 43.7398 16.3564C43.7496 16.7761 43.6939 17.1948 43.5748 17.5973C43.486 17.9059 43.3355 18.1933 43.1325 18.4422C42.9534 18.6508 42.7271 18.8138 42.4725 18.9174C42.2214 19.021 41.9519 19.0726 41.6804 19.0693C41.4065 19.0744 41.1346 19.0227 40.8817 18.9174C40.6239 18.8194 40.3963 18.6556 40.2216 18.4422C40.0268 18.1924 39.8812 17.908 39.7926 17.6039C39.6844 17.1971 39.6333 16.7773 39.6408 16.3564ZM42.8157 16.3564C42.8548 15.8385 42.7497 15.3199 42.5121 14.858C42.4241 14.7147 42.3009 14.5963 42.1541 14.5141C42.0073 14.432 41.842 14.3889 41.6738 14.3889C41.5056 14.3889 41.3402 14.432 41.1935 14.5141C41.0467 14.5963 40.9235 14.7147 40.8355 14.858C40.6095 15.3236 40.5094 15.8401 40.5451 16.3564C40.4989 16.8675 40.5948 17.3815 40.8223 17.8415C40.9111 17.9846 41.0358 18.102 41.184 18.1819C41.3322 18.2618 41.4988 18.3015 41.6672 18.297C41.8338 18.3019 41.9987 18.2622 42.1449 18.1822C42.2911 18.1021 42.4133 17.9845 42.4989 17.8415C42.7354 17.3841 42.8405 16.87 42.8025 16.3564H42.8157ZM47.0863 14.5412C47.0428 14.5173 46.9961 14.4996 46.9477 14.4884C46.7886 14.4484 46.6225 14.4443 46.4616 14.4762C46.3007 14.5082 46.1488 14.5755 46.017 14.6732C45.8724 14.8072 45.7596 14.9718 45.687 15.1551V18.9438H44.8157V13.7755H45.6144V14.4752C45.6576 14.3651 45.7106 14.259 45.7728 14.1584C45.8307 14.0611 45.9043 13.9741 45.9906 13.9009C46.0811 13.825 46.1838 13.7647 46.2942 13.7227C46.4328 13.6779 46.5777 13.6556 46.7233 13.6567C46.8233 13.6556 46.923 13.6667 47.0203 13.6897L47.1985 13.7425L47.0863 14.5412ZM53.753 12.2574H51.1127V14.8184H53.5418V15.5643H51.1061V18.165H54.0236L53.9708 18.9438H50.1688V11.5181H53.8124L53.753 12.2574ZM57.885 14.7788C57.8545 14.7411 57.819 14.7078 57.7794 14.6798C57.7259 14.6312 57.6685 14.587 57.6078 14.5478C57.5237 14.5017 57.4353 14.4641 57.3437 14.4356C57.2326 14.4019 57.1167 14.3863 57.0005 14.3894C56.8219 14.3883 56.6448 14.422 56.4791 14.4884C56.3144 14.561 56.1713 14.6746 56.0632 14.8184C55.9312 14.9939 55.8348 15.1934 55.7794 15.4059C55.7078 15.6929 55.6745 15.9881 55.6804 16.2838C55.6722 16.6054 55.7032 16.9268 55.7728 17.2409C55.8184 17.4611 55.9033 17.6713 56.0236 17.8613C56.1201 18.0055 56.255 18.1198 56.4131 18.1914C56.575 18.2635 56.7507 18.2996 56.9279 18.297C57.1394 18.3101 57.3503 18.262 57.5352 18.1584C57.6411 18.0907 57.7405 18.0133 57.8322 17.9273L58.1886 18.5346L58.0302 18.6864C57.952 18.7592 57.863 18.8194 57.7662 18.8646C57.643 18.9292 57.5121 18.978 57.3767 19.0098C57.2016 19.0513 57.0221 19.0713 56.8421 19.0693C56.5566 19.0742 56.2725 19.0273 56.0038 18.9306C55.7468 18.8377 55.519 18.6783 55.3437 18.4686C55.1408 18.2222 54.9903 17.9369 54.9015 17.6303C54.7865 17.2135 54.7331 16.7821 54.7431 16.3498C54.7301 15.9214 54.795 15.4943 54.9345 15.0891C55.0452 14.778 55.2181 14.4928 55.4428 14.2508C55.6274 14.0515 55.8524 13.894 56.1028 13.7887C56.3475 13.6955 56.6067 13.6463 56.8685 13.6435C57.042 13.6407 57.2151 13.6606 57.3833 13.7029C57.5136 13.7317 57.6399 13.7761 57.7596 13.8349C57.8527 13.8804 57.9392 13.9381 58.017 14.0065C58.075 14.0561 58.1301 14.109 58.182 14.165L57.885 14.7788ZM58.8421 16.3564C58.8369 15.9413 58.8925 15.5276 59.0071 15.1287C59.1019 14.8198 59.2566 14.5327 59.4626 14.2838C59.6434 14.0754 59.8691 13.9107 60.1226 13.8019C60.3733 13.6963 60.6427 13.6424 60.9147 13.6435C61.189 13.6404 61.461 13.6944 61.7134 13.8019C61.9702 13.9049 62.1971 14.0706 62.3734 14.2838C62.5682 14.536 62.7137 14.8226 62.8025 15.1287C62.9091 15.529 62.9602 15.9421 62.9543 16.3564C62.9628 16.7756 62.9094 17.1937 62.7959 17.5973C62.7049 17.9064 62.5522 18.1938 62.347 18.4422C62.1686 18.6516 61.9422 18.8147 61.687 18.9174C61.4336 19.021 61.162 19.0726 60.8883 19.0693C60.6144 19.0744 60.3425 19.0227 60.0896 18.9174C59.8318 18.8194 59.6043 18.6556 59.4296 18.4422C59.237 18.192 59.0936 17.9075 59.0071 17.6039C58.891 17.1985 58.8354 16.7781 58.8421 16.3564ZM62.017 16.3564C62.0544 15.8393 61.9518 15.3217 61.72 14.858C61.6334 14.712 61.5095 14.5916 61.361 14.5093C61.2125 14.4269 61.0448 14.3855 60.8751 14.3894C60.7072 14.3858 60.5414 14.4275 60.3951 14.5099C60.2488 14.5923 60.1273 14.7126 60.0434 14.858C59.8116 15.3217 59.7089 15.8393 59.7464 16.3564C59.7044 16.8702 59.8097 17.3854 60.05 17.8415C60.1372 17.9846 60.2607 18.1021 60.4079 18.182C60.5551 18.262 60.7208 18.3017 60.8883 18.297C61.0549 18.3019 61.2198 18.2622 61.366 18.1822C61.5122 18.1021 61.6344 17.9845 61.72 17.8415C61.9543 17.3834 62.0571 16.8694 62.017 16.3564ZM66.8421 18.9438V15.6435C66.872 15.3128 66.7932 14.9814 66.6177 14.6996C66.5378 14.6036 66.4364 14.5279 66.3217 14.4786C66.207 14.4292 66.0822 14.4077 65.9576 14.4158C65.7224 14.4042 65.4901 14.4716 65.2975 14.6072C65.1481 14.7176 65.0109 14.8438 64.8883 14.9834V18.9438H64.0236V13.7755H64.8157V14.3564C64.8611 14.2829 64.9167 14.2163 64.9807 14.1584C65.063 14.0699 65.1561 13.9923 65.2579 13.9273C65.3852 13.8422 65.5227 13.7735 65.6672 13.7227C65.8417 13.6649 66.0245 13.6359 66.2084 13.6369C66.4198 13.6365 66.6296 13.6722 66.8289 13.7425C67.0133 13.8094 67.1771 13.9231 67.3041 14.0726C67.4466 14.2416 67.5503 14.4399 67.6078 14.6534C67.6851 14.9439 67.7206 15.244 67.7134 15.5445V18.9372L66.8421 18.9438ZM68.7761 16.3564C68.7696 15.9407 68.8275 15.5266 68.9477 15.1287C69.0401 14.8202 69.1927 14.5331 69.3965 14.2838C69.5766 14.0746 69.8025 13.9097 70.0566 13.8019C70.3076 13.6974 70.5768 13.6435 70.8487 13.6435C71.1206 13.6435 71.3898 13.6974 71.6408 13.8019C71.8976 13.9049 72.1245 14.0706 72.3008 14.2838C72.4981 14.5344 72.6439 14.8215 72.7299 15.1287C72.9455 15.9374 72.9455 16.7885 72.7299 17.5973C72.6416 17.9075 72.4886 18.1954 72.281 18.4422C72.1039 18.653 71.8771 18.8163 71.621 18.9174C71.3677 19.0215 71.096 19.0731 70.8223 19.0693C70.5506 19.0735 70.281 19.0218 70.0302 18.9174C69.7738 18.8168 69.5469 18.6534 69.3701 18.4422C69.1776 18.192 69.0342 17.9075 68.9477 17.6039C68.8293 17.1988 68.7715 16.7784 68.7761 16.3564ZM71.9576 16.3564C71.9933 15.8387 71.8884 15.321 71.654 14.858C71.5679 14.713 71.4451 14.5933 71.2979 14.511C71.1507 14.4287 70.9843 14.3867 70.8157 14.3894C70.6468 14.3853 70.4799 14.4267 70.3325 14.5091C70.185 14.5916 70.0624 14.7121 69.9774 14.858C69.7455 15.3217 69.6429 15.8393 69.6804 16.3564C69.6416 16.87 69.7468 17.3843 69.984 17.8415C70.0743 17.9819 70.1983 18.0973 70.3448 18.1772C70.4912 18.2572 70.6554 18.2991 70.8223 18.2991C70.9891 18.2991 71.1533 18.2572 71.2998 18.1772C71.4463 18.0973 71.5703 17.9819 71.6606 17.8415C71.8948 17.3834 71.9977 16.8694 71.9576 16.3564ZM76.6705 18.9438V15.6435C76.6958 15.3264 76.6317 15.0086 76.4856 14.726C76.4194 14.6321 76.3297 14.5571 76.2255 14.5084C76.1213 14.4598 76.0062 14.4393 75.8916 14.4488C75.7641 14.4445 75.6368 14.4624 75.5154 14.5016C75.4109 14.5322 75.311 14.5766 75.2183 14.6336C75.1347 14.6839 75.0572 14.7437 74.9873 14.8118L74.8289 14.9834V18.9438H73.9576V13.7755H74.7563V14.3564C74.8025 14.2813 74.8556 14.2106 74.9147 14.1452C74.9975 14.0579 75.0881 13.9784 75.1853 13.9075C75.3009 13.8277 75.4277 13.7655 75.5616 13.7227C75.7163 13.6681 75.8794 13.6413 76.0434 13.6435C76.297 13.626 76.5502 13.6821 76.7727 13.8051C76.9951 13.928 77.1774 14.1126 77.2975 14.3366C77.356 14.2514 77.4247 14.1738 77.5022 14.1056C77.5927 14.0182 77.6923 13.9408 77.7992 13.8745C77.9231 13.8065 78.0536 13.7512 78.1886 13.7095C78.3434 13.6664 78.5032 13.6442 78.6639 13.6435C79.7134 13.6435 80.2348 14.2574 80.2348 15.4785V18.9438H79.3635V15.6435C79.3891 15.3215 79.3104 14.9998 79.1391 14.726C79.0573 14.6328 78.9553 14.5594 78.841 14.5114C78.7267 14.4634 78.6029 14.442 78.479 14.4488C78.2627 14.4411 78.0497 14.5036 77.8718 14.627C77.7347 14.7279 77.6066 14.8406 77.489 14.9636C77.4958 15.0471 77.4958 15.131 77.489 15.2145C77.489 15.3069 77.489 15.3993 77.489 15.5049V18.9702L76.6705 18.9438ZM82.4262 18.9438H81.555V13.7755H82.4064L82.4262 18.9438ZM81.9972 12.528C81.9176 12.5311 81.8383 12.5174 81.7644 12.4878C81.6905 12.4583 81.6236 12.4135 81.5682 12.3564C81.4574 12.231 81.3984 12.0682 81.4031 11.9009C81.4018 11.7382 81.4605 11.5807 81.5682 11.4587C81.6825 11.3486 81.8351 11.2871 81.9939 11.2871C82.1527 11.2871 82.3053 11.3486 82.4196 11.4587C82.5249 11.5817 82.5813 11.7391 82.5781 11.9009C82.5846 12.0673 82.528 12.23 82.4196 12.3564C82.3647 12.4123 82.2988 12.4564 82.2262 12.4859C82.1535 12.5154 82.0756 12.5298 81.9972 12.528ZM86.6177 14.7788C86.5883 14.7424 86.5551 14.7092 86.5186 14.6798C86.4616 14.6327 86.4021 14.5886 86.3404 14.5478C86.2564 14.5017 86.1679 14.4641 86.0764 14.4356C85.9652 14.4019 85.8493 14.3863 85.7332 14.3894C85.5546 14.3883 85.3775 14.422 85.2117 14.4884C85.0483 14.5629 84.9055 14.6762 84.7959 14.8184C84.6663 14.9953 84.5701 15.1944 84.512 15.4059C84.4405 15.6929 84.4072 15.9881 84.413 16.2838C84.4049 16.6054 84.4359 16.9268 84.5055 17.2409C84.551 17.4611 84.636 17.6713 84.7563 17.8613C84.8528 18.0055 84.9877 18.1198 85.1457 18.1914C85.3076 18.2635 85.4833 18.2996 85.6606 18.297C85.8721 18.3101 86.0829 18.262 86.2678 18.1584C86.3737 18.0907 86.4732 18.0133 86.5649 17.9273L86.9213 18.5346L86.7629 18.6864C86.6847 18.7592 86.5956 18.8194 86.4988 18.8646C86.3756 18.9292 86.2448 18.978 86.1094 19.0098C85.9343 19.0513 85.7547 19.0713 85.5748 19.0693C85.3002 19.0717 85.0274 19.0247 84.7695 18.9306C84.512 18.8386 84.284 18.679 84.1094 18.4686C83.9064 18.2222 83.7559 17.9369 83.6672 17.6303C83.5521 17.2135 83.4988 16.7821 83.5087 16.3498C83.4958 15.9214 83.5607 15.4943 83.7002 15.0891C83.8109 14.778 83.9838 14.4928 84.2084 14.2508C84.393 14.0515 84.6181 13.894 84.8685 13.7887C85.1131 13.6955 85.3724 13.6463 85.6342 13.6435C85.8076 13.6407 85.9807 13.6606 86.149 13.7029C86.2792 13.7317 86.4056 13.7761 86.5252 13.8349C86.6183 13.8804 86.7049 13.9381 86.7827 14.0065C86.8694 14.0481 86.9513 14.099 87.0269 14.1584L86.6177 14.7788ZM94.9477 18.9438H93.9114L93.2513 16.561H90.9873L90.3272 18.9438H89.3833L91.8058 11.5181H92.5384L94.9477 18.9438ZM93.0401 15.8547L92.4592 13.8151C92.38 13.5445 92.314 13.2871 92.2546 13.0363C92.202 12.8331 92.1688 12.6253 92.1556 12.4158C92.1424 12.6231 92.1092 12.8287 92.0566 13.0297C91.9906 13.2673 91.9246 13.5247 91.8454 13.7953L91.2315 15.8547H93.0401ZM97.852 14.4884H96.7959V18.9438H95.9378V14.4884H95.3107V13.9009L95.9378 13.7887V12.7524C95.9325 12.5073 95.9728 12.2634 96.0566 12.033C96.1244 11.8481 96.23 11.6795 96.3668 11.5379C96.4947 11.4094 96.6506 11.3123 96.8223 11.2541C96.9996 11.1984 97.1843 11.1695 97.3701 11.1683C97.5321 11.1644 97.6934 11.1912 97.8454 11.2475C97.9355 11.2769 98.0219 11.3168 98.1028 11.3663L97.918 12.0858C97.8592 12.0496 97.7974 12.0187 97.7332 11.9933C97.6404 11.9588 97.5416 11.9431 97.4427 11.9471C97.3551 11.9401 97.267 11.9537 97.1856 11.987C97.1042 12.0202 97.0317 12.0722 96.9741 12.1386C96.8405 12.3509 96.7824 12.602 96.8091 12.8514V13.7755H97.9708L97.852 14.4884ZM100.888 14.4884H99.8322V18.9438H98.9741V14.4884H98.347V13.9009L98.9741 13.7887V12.7524C98.9688 12.5073 99.0091 12.2634 99.0929 12.033C99.1607 11.8481 99.2664 11.6795 99.4031 11.5379C99.531 11.4094 99.6869 11.3123 99.8586 11.2541C100.036 11.1984 100.221 11.1695 100.406 11.1683C100.568 11.1644 100.73 11.1912 100.882 11.2475C100.972 11.2769 101.058 11.3168 101.139 11.3663L100.954 12.0858C100.896 12.0496 100.834 12.0187 100.769 11.9933C100.677 11.9588 100.578 11.9431 100.479 11.9471C100.391 11.9401 100.303 11.9537 100.222 11.987C100.14 12.0202 100.068 12.0722 100.01 12.1386C99.8768 12.3509 99.8187 12.602 99.8454 12.8514V13.7755H101.007L100.888 14.4884ZM101.397 17.6303C101.384 17.3686 101.444 17.1085 101.568 16.8778C101.676 16.6755 101.836 16.5048 102.03 16.3828C102.232 16.2557 102.456 16.1662 102.69 16.1188C102.966 16.0592 103.247 16.0304 103.529 16.033H103.799V15.5379C103.833 15.2176 103.748 14.896 103.562 14.6336C103.476 14.5475 103.372 14.481 103.258 14.4389C103.144 14.3967 103.023 14.3798 102.901 14.3894C102.67 14.3773 102.44 14.4348 102.241 14.5544C102.099 14.6446 101.962 14.7438 101.832 14.8514L101.469 14.2706C101.535 14.199 101.608 14.1348 101.687 14.0792C101.788 13.9976 101.899 13.9288 102.017 13.8745C102.158 13.8044 102.307 13.7491 102.459 13.7095C102.641 13.6657 102.827 13.6435 103.014 13.6435C103.235 13.6282 103.457 13.6597 103.665 13.7359C103.873 13.8121 104.063 13.9313 104.222 14.0858C104.528 14.4925 104.673 14.9976 104.631 15.5049V17.8679C104.631 18.0858 104.631 18.3036 104.631 18.528C104.638 18.6717 104.654 18.815 104.677 18.957H103.925V18.3828C103.889 18.4621 103.844 18.5373 103.793 18.6072C103.735 18.6929 103.663 18.7686 103.581 18.8316C103.485 18.903 103.381 18.9628 103.271 19.0098C103.131 19.0596 102.984 19.0842 102.835 19.0825C102.65 19.0844 102.466 19.0485 102.294 18.9768C102.128 18.907 101.977 18.8036 101.852 18.6732C101.723 18.5443 101.624 18.3889 101.562 18.2178C101.475 18.0331 101.423 17.8339 101.41 17.6303H101.397ZM102.954 18.33C103.064 18.3312 103.174 18.3134 103.278 18.2772C103.367 18.2347 103.452 18.1815 103.529 18.1188C103.592 18.0706 103.65 18.0152 103.7 17.9537L103.826 17.7953V16.6798H103.542C103.214 16.6709 102.889 16.7459 102.598 16.8976C102.491 16.9604 102.404 17.0518 102.347 17.1615C102.29 17.2712 102.265 17.3948 102.274 17.5181C102.259 17.7333 102.322 17.9467 102.453 18.1188C102.518 18.1893 102.598 18.2448 102.687 18.2813C102.776 18.3178 102.871 18.3344 102.967 18.33H102.954ZM106.862 18.9438H105.991V13.7755H106.862V18.9438ZM106.433 12.528C106.353 12.5311 106.274 12.5174 106.2 12.4878C106.126 12.4583 106.059 12.4135 106.004 12.3564C105.893 12.231 105.834 12.0682 105.839 11.9009C105.836 11.82 105.849 11.7392 105.877 11.6633C105.905 11.5874 105.948 11.5179 106.004 11.4587C106.059 11.4016 106.126 11.3568 106.2 11.3273C106.274 11.2977 106.353 11.284 106.433 11.2871C106.51 11.2846 106.587 11.2986 106.659 11.3282C106.731 11.3578 106.795 11.4023 106.849 11.4587C106.904 11.5179 106.947 11.5874 106.975 11.6633C107.004 11.7392 107.017 11.82 107.014 11.9009C107.018 12.0682 106.959 12.231 106.849 12.3564C106.797 12.4111 106.735 12.4546 106.665 12.4841C106.596 12.5137 106.521 12.5286 106.446 12.528H106.433ZM110.466 14.5082C110.422 14.4843 110.376 14.4666 110.327 14.4554C110.233 14.4282 110.135 14.4171 110.037 14.4224C109.918 14.413 109.798 14.4274 109.685 14.4648C109.571 14.5022 109.467 14.5618 109.377 14.6402C109.232 14.7742 109.119 14.9388 109.047 15.1221V18.9108H108.175V13.7755H108.974V14.4752C109.015 14.3737 109.061 14.2746 109.113 14.1782C109.171 14.0809 109.244 13.9939 109.331 13.9207C109.423 13.8446 109.528 13.7844 109.641 13.7425C109.777 13.6977 109.92 13.6754 110.063 13.6765C110.163 13.6754 110.263 13.6865 110.36 13.7095L110.538 13.7623L110.466 14.5082ZM113.515 14.7854C113.419 14.6896 113.315 14.6013 113.205 14.5214C113.03 14.4037 112.822 14.3458 112.611 14.3564C112.422 14.3437 112.234 14.3999 112.083 14.5148C112.026 14.5628 111.98 14.6224 111.948 14.6895C111.917 14.7567 111.899 14.8299 111.898 14.9042C111.893 15.0807 111.954 15.2526 112.07 15.3861C112.219 15.5444 112.39 15.6801 112.578 15.7887L112.901 15.9801C113.211 16.1555 113.492 16.3782 113.733 16.6402C113.949 16.932 114.055 17.2908 114.032 17.6532C114.01 18.0157 113.859 18.3583 113.608 18.6204C113.442 18.7669 113.248 18.8791 113.039 18.9505C112.829 19.0218 112.608 19.051 112.387 19.0363C112.202 19.0394 112.018 19.0195 111.839 18.9768C111.697 18.9356 111.558 18.8849 111.423 18.825C111.317 18.7728 111.217 18.7086 111.126 18.6336C111.057 18.577 110.993 18.5152 110.934 18.4488L111.35 17.7557L111.509 17.9075C111.575 17.9708 111.648 18.0262 111.727 18.0726C111.819 18.1279 111.916 18.1743 112.017 18.2112C112.139 18.2468 112.266 18.2646 112.393 18.264C112.605 18.2767 112.815 18.2161 112.987 18.0924C113.051 18.0421 113.103 17.978 113.138 17.9048C113.174 17.8316 113.192 17.7513 113.192 17.6699C113.195 17.5624 113.179 17.4553 113.146 17.3531C113.112 17.2639 113.063 17.1813 113 17.1089C112.927 17.0342 112.848 16.9658 112.763 16.9042L112.439 16.693L112.116 16.4884C111.83 16.3099 111.573 16.0871 111.357 15.8283C111.162 15.5784 111.064 15.2669 111.08 14.9504C111.076 14.7685 111.113 14.588 111.189 14.4223C111.264 14.2566 111.376 14.11 111.515 13.9933C111.654 13.8707 111.816 13.7765 111.991 13.7161C112.179 13.6475 112.378 13.6118 112.578 13.6105C112.752 13.6071 112.925 13.6271 113.093 13.6699C113.224 13.7049 113.35 13.7559 113.469 13.8217C113.559 13.877 113.645 13.9388 113.727 14.0065L113.892 14.165L113.515 14.7854ZM36.6375 28.4818C36.6271 28.2202 36.6863 27.9605 36.8091 27.7293C36.92 27.5306 37.0788 27.3627 37.2711 27.2409C37.473 27.1114 37.6966 27.0197 37.9312 26.9702C38.2073 26.9162 38.4881 26.8896 38.7695 26.891H39.0401V26.396C39.0825 26.0807 39.0124 25.7605 38.8421 25.4917C38.7559 25.4058 38.6526 25.3391 38.5388 25.2958C38.4251 25.2526 38.3035 25.2339 38.182 25.2409C37.9498 25.2307 37.7199 25.2905 37.522 25.4125C37.3794 25.5027 37.2427 25.6019 37.1127 25.7095L36.7497 25.1287C36.8164 25.0565 36.8893 24.9902 36.9675 24.9306C37.0702 24.8513 37.1808 24.7827 37.2975 24.726C37.4379 24.6554 37.5865 24.6022 37.7398 24.5676C37.9208 24.5205 38.1073 24.4983 38.2942 24.5016C38.5155 24.4846 38.7378 24.5153 38.9462 24.5916C39.1546 24.6679 39.3442 24.788 39.5022 24.9438C39.8105 25.3494 39.9564 25.8555 39.9114 26.363V28.7194C39.9114 28.9438 39.9114 29.1639 39.9114 29.3795C39.9188 29.5211 39.9343 29.6621 39.9576 29.8019H39.1523V29.2343C39.1175 29.3107 39.0756 29.3836 39.0269 29.4521C38.9649 29.5384 38.8917 29.6161 38.8091 29.6831C38.7143 29.7546 38.6098 29.8124 38.4989 29.8547C38.3604 29.91 38.2123 29.9369 38.0632 29.9339C37.8778 29.9327 37.6943 29.8969 37.522 29.8283C37.3542 29.759 37.2026 29.6558 37.0765 29.5252C36.9504 29.3946 36.8527 29.2394 36.7893 29.0693C36.7028 28.8845 36.6513 28.6853 36.6375 28.4818ZM38.182 29.1815C38.2923 29.186 38.4024 29.1681 38.5055 29.1287C38.5914 29.0962 38.6733 29.0541 38.7497 29.0032C38.8149 28.9546 38.8727 28.8968 38.9213 28.8316C38.9602 28.7787 39.002 28.728 39.0467 28.6798V27.5379H38.7761C38.4488 27.5357 38.1255 27.6103 37.8322 27.7557C37.7189 27.8213 37.6277 27.919 37.5701 28.0366C37.5125 28.1541 37.4912 28.2861 37.5088 28.4158C37.4927 28.629 37.5562 28.8407 37.687 29.0098C37.7534 29.0707 37.8316 29.1174 37.9168 29.1469C38.0019 29.1764 38.0922 29.1882 38.182 29.1815ZM44.0368 29.7953V26.495C44.0654 26.1674 43.9891 25.8391 43.819 25.5577C43.7398 25.4605 43.6387 25.3835 43.5239 25.333C43.4092 25.2825 43.2841 25.26 43.1589 25.2673C42.9228 25.2561 42.6899 25.3259 42.4989 25.4653C42.3463 25.5719 42.2087 25.6985 42.0896 25.8415V29.8019H41.2315V24.627H42.0302V25.2145C42.068 25.145 42.1146 25.0806 42.1688 25.023C42.2535 24.9327 42.3488 24.8529 42.4527 24.7854C42.5817 24.7052 42.7189 24.6388 42.8619 24.5874C43.0334 24.5264 43.2146 24.4973 43.3966 24.5016C43.6097 24.4991 43.8217 24.5326 44.0236 24.6006C44.2058 24.6682 44.3672 24.7819 44.4923 24.9306C44.6335 25.103 44.7369 25.3032 44.7959 25.5181C44.874 25.8085 44.9096 26.1086 44.9015 26.4092V29.7953H44.0368ZM45.9774 27.2871C45.9635 26.8382 46.0329 26.3906 46.182 25.9669C46.2937 25.6499 46.474 25.3614 46.7101 25.1221C46.9129 24.9106 47.1645 24.7519 47.4428 24.66C47.7071 24.5739 47.9832 24.5294 48.2612 24.528C48.4052 24.5262 48.549 24.5395 48.6903 24.5676C48.7925 24.5837 48.8923 24.6125 48.9873 24.6534V22.1848L49.8784 22.0792V29.7953H49.0797V29.2475L48.9609 29.4257C48.8913 29.51 48.8115 29.5854 48.7233 29.6501C48.6084 29.7345 48.4816 29.8012 48.347 29.8481C48.1766 29.9036 47.9982 29.9304 47.819 29.9273C47.5913 29.925 47.3666 29.8755 47.1589 29.7821C46.9295 29.6795 46.7297 29.5206 46.5781 29.3201C46.3992 29.0734 46.2672 28.796 46.1886 28.5016C46.0653 28.1082 45.9986 27.6993 45.9906 27.2871H45.9774ZM48.0236 29.1485C48.1468 29.1523 48.2697 29.1344 48.3866 29.0957C48.4869 29.065 48.5825 29.0206 48.6705 28.9636C48.7417 28.9152 48.808 28.86 48.8685 28.7986C48.9115 28.7508 48.9512 28.7001 48.9873 28.6468V25.4587C48.9033 25.403 48.8123 25.3586 48.7167 25.3267C48.5881 25.2891 48.4546 25.2713 48.3206 25.2739C48.1287 25.2745 47.9386 25.3103 47.7596 25.3795C47.5783 25.4486 47.4188 25.5648 47.2975 25.7161C47.1576 25.8992 47.0545 26.1077 46.9939 26.33C46.9139 26.6313 46.8761 26.9423 46.8817 27.2541C46.8733 27.5582 46.9044 27.8622 46.9741 28.1584C47.0217 28.3656 47.1067 28.5625 47.2249 28.7392C47.3188 28.8724 47.4433 28.9811 47.588 29.0561C47.7284 29.1213 47.8821 29.1529 48.0368 29.1485H48.0236ZM53.3041 26.0858C53.2897 25.4836 53.3767 24.8834 53.5616 24.3102C53.6992 23.8717 53.9237 23.4654 54.2216 23.1155C54.4902 22.824 54.8222 22.5982 55.1919 22.4554C55.5453 22.3169 55.9213 22.2453 56.3008 22.2442C56.539 22.2417 56.7765 22.2706 57.0071 22.33C57.1836 22.3791 57.3541 22.4477 57.5154 22.5346C57.6389 22.5964 57.7524 22.6765 57.852 22.7722C57.9378 22.8514 58.0104 22.9174 58.0566 22.9702L57.555 23.5907L57.4031 23.4389C57.328 23.3694 57.2462 23.3075 57.1589 23.2541C57.0474 23.1888 56.9304 23.1336 56.8091 23.0891C56.6552 23.0418 56.4948 23.0195 56.3338 23.0231C56.064 23.0218 55.7967 23.0757 55.5484 23.1815C55.288 23.2971 55.061 23.4764 54.8883 23.7029C54.6818 23.9824 54.5296 24.298 54.4395 24.6336C54.3381 25.0949 54.3025 25.5683 54.3338 26.0396C54.3255 26.5229 54.372 27.0056 54.4725 27.4785C54.5448 27.8191 54.679 28.1435 54.8685 28.4356C55.0251 28.6649 55.239 28.8492 55.489 28.9702C55.7416 29.0858 56.0165 29.1444 56.2942 29.1419C56.4767 29.1428 56.6586 29.1206 56.8355 29.0759C56.9741 29.0377 57.1089 28.9869 57.2381 28.924C57.339 28.8753 57.4342 28.8155 57.522 28.7458L57.6936 28.5874L58.0434 29.2475L57.8388 29.4455C57.7271 29.5382 57.6054 29.6179 57.4758 29.6831C57.3013 29.7645 57.1203 29.8307 56.9345 29.8811C56.6932 29.9436 56.4444 29.9725 56.1952 29.9669C55.7938 29.9713 55.3951 29.8996 55.0203 29.7557C54.6677 29.6161 54.3564 29.389 54.116 29.0957C53.8423 28.7441 53.6445 28.3395 53.5352 27.9075C53.3937 27.3112 53.3359 26.698 53.3635 26.0858H53.3041ZM59.852 28.594C59.8367 28.7495 59.8689 28.906 59.9444 29.0428C59.9822 29.0893 60.0309 29.1256 60.0862 29.1487C60.1415 29.1717 60.2016 29.1807 60.2612 29.1749C60.3267 29.1863 60.3937 29.1863 60.4593 29.1749L60.5847 29.1353L60.6573 29.7953L60.4196 29.8811C60.2688 29.9197 60.1133 29.9375 59.9576 29.9339C59.7081 29.918 59.4742 29.8069 59.3041 29.6237C59.0949 29.3512 59.0002 29.0078 59.0401 28.6666V22.1848L59.8784 22.0792L59.852 28.594ZM62.314 29.7953H61.4692V24.627H62.3404L62.314 29.7953ZM61.9444 23.3993C61.8647 23.4041 61.7848 23.3912 61.7106 23.3616C61.6365 23.3319 61.5698 23.2862 61.5154 23.2277C61.404 23.106 61.3423 22.947 61.3423 22.7821C61.3423 22.6172 61.404 22.4583 61.5154 22.3366C61.6297 22.2265 61.7823 22.165 61.9411 22.165C62.0999 22.165 62.2525 22.2265 62.3668 22.3366C62.4692 22.4625 62.5251 22.6198 62.5251 22.7821C62.5251 22.9444 62.4692 23.1017 62.3668 23.2277C62.3129 23.2849 62.2472 23.3299 62.1743 23.3595C62.1014 23.3891 62.023 23.4027 61.9444 23.3993ZM66.4196 29.8151V26.5148C66.4433 26.2007 66.3818 25.8859 66.2414 25.6039C66.1759 25.5087 66.0866 25.4324 65.9823 25.3826C65.8781 25.3328 65.7626 25.3113 65.6474 25.3201C65.5179 25.3188 65.3889 25.3366 65.2645 25.3729C65.1609 25.4085 65.0613 25.4549 64.9675 25.5115C64.8859 25.5618 64.8106 25.6217 64.7431 25.6897L64.5781 25.8613V29.8217H63.6738V24.627H64.4725V25.2145C64.5219 25.1399 64.577 25.0692 64.6375 25.0032C64.7152 24.9109 64.8065 24.8308 64.9081 24.7656C65.0234 24.6837 65.1502 24.6192 65.2843 24.5742C65.4401 24.5245 65.6027 24.5 65.7662 24.5016C66.0153 24.4823 66.2647 24.5341 66.4856 24.6509C66.7064 24.7678 66.8895 24.9449 67.0137 25.1617C67.0758 25.0794 67.1442 25.0022 67.2183 24.9306C67.3102 24.8439 67.4121 24.7686 67.522 24.7062C67.6439 24.6343 67.7749 24.5788 67.9114 24.5412C68.0631 24.4944 68.2213 24.4721 68.38 24.4752C69.4295 24.4752 69.951 25.0825 69.951 26.3036V29.7689H69.0797V26.4686C69.1088 26.1484 69.0298 25.8277 68.8553 25.5577C68.7754 25.4617 68.674 25.386 68.5593 25.3366C68.4446 25.2873 68.3198 25.2658 68.1952 25.2739C67.9788 25.2652 67.7654 25.3279 67.588 25.4521C67.4463 25.5497 67.3176 25.6651 67.2051 25.7953C67.2051 25.8745 67.2051 25.9537 67.2381 26.0462C67.2711 26.1386 67.2381 26.231 67.2381 26.33V29.7953L66.4196 29.8151ZM71.0401 28.495C71.0327 28.2337 71.0918 27.9748 71.2117 27.7425C71.3264 27.5465 71.4844 27.3794 71.6738 27.2541C71.8756 27.1246 72.0992 27.0329 72.3338 26.9834C72.6078 26.9297 72.8864 26.9031 73.1655 26.9042H73.4361V26.4092C73.4688 26.0899 73.3869 25.7694 73.2051 25.5049C73.1197 25.418 73.0165 25.3505 72.9025 25.3072C72.7886 25.2639 72.6667 25.2458 72.5451 25.2541C72.3129 25.2452 72.0834 25.3048 71.885 25.4257C71.7435 25.5175 71.6069 25.6167 71.4757 25.7227L71.1127 25.1419L71.3305 24.9438C71.4343 24.866 71.5447 24.7975 71.6606 24.7392C71.8014 24.6696 71.9498 24.6165 72.1028 24.5808C72.286 24.5334 72.4747 24.5112 72.6639 24.5148C72.885 24.4991 73.107 24.5304 73.3152 24.6066C73.5234 24.6828 73.7131 24.8023 73.8718 24.957C74.1801 25.3626 74.3261 25.8687 74.281 26.3762V28.7326C74.281 28.957 74.281 29.1771 74.281 29.3927C74.281 29.6039 74.281 29.7425 74.3206 29.8151H73.4956V29.2475C73.4584 29.324 73.4142 29.3969 73.3635 29.4653C73.3015 29.5516 73.2283 29.6293 73.1457 29.6963C73.0518 29.7692 72.9472 29.8271 72.8355 29.8679C72.6995 29.9239 72.5534 29.9509 72.4064 29.9471C72.2188 29.9465 72.033 29.9107 71.8586 29.8415C71.6958 29.7682 71.5481 29.6653 71.4229 29.5379C71.2969 29.4068 71.1982 29.252 71.1325 29.0825C71.0389 28.8953 70.9849 28.6908 70.9741 28.4818L71.0401 28.495ZM72.6045 29.1947C72.7147 29.1982 72.8245 29.1802 72.9279 29.1419C73.0124 29.1109 73.0923 29.0687 73.1655 29.0164C73.2322 28.9696 73.2903 28.9115 73.3371 28.8448L73.4625 28.693V27.5379H73.1853C72.856 27.5366 72.5307 27.6111 72.2348 27.7557C72.1215 27.8213 72.0303 27.919 71.9727 28.0366C71.9151 28.1541 71.8938 28.2861 71.9114 28.4158C71.8938 28.6303 71.9601 28.8432 72.0962 29.0098C72.2173 29.1199 72.3749 29.181 72.5385 29.1815L72.6045 29.1947ZM77.786 25.3399H76.6573V28.2046C76.6343 28.4612 76.6822 28.7192 76.7959 28.9504C76.8524 29.0203 76.9255 29.075 77.0084 29.1096C77.0914 29.1441 77.1817 29.1575 77.2711 29.1485C77.3836 29.153 77.4958 29.1351 77.6012 29.0957C77.6725 29.0723 77.7411 29.0413 77.8058 29.0032L77.9246 29.7029C77.8437 29.7559 77.7574 29.8002 77.6672 29.8349C77.4925 29.9017 77.3062 29.9331 77.1193 29.9273C76.9355 29.9391 76.7514 29.9123 76.5786 29.8486C76.4058 29.785 76.2482 29.6859 76.116 29.5577C75.8588 29.2002 75.7393 28.7619 75.7794 28.3234V25.3399H75.1457V24.759L75.7662 24.627L75.8652 23.1881H76.6441V24.627H77.8784L77.786 25.3399ZM82.017 26.3762C82.0281 26.5674 82.0281 26.7592 82.017 26.9504C82.017 27.1089 82.017 27.2541 81.9774 27.3729H79.3371C79.333 27.8428 79.4711 28.303 79.7332 28.693C79.855 28.8382 80.0093 28.9527 80.1836 29.0273C80.3579 29.1018 80.5473 29.1343 80.7365 29.1221C80.8748 29.126 81.0129 29.1082 81.1457 29.0693C81.2559 29.0401 81.3623 28.998 81.4625 28.9438C81.5434 28.8994 81.6207 28.8486 81.6936 28.792L81.8256 28.6732L82.149 29.2871L81.9906 29.4455C81.9001 29.5223 81.8029 29.5907 81.7002 29.6501C81.5554 29.7246 81.4026 29.7822 81.2447 29.8217C81.0299 29.8808 80.8074 29.9074 80.5847 29.9009C80.2839 29.9062 79.9851 29.8501 79.7068 29.7359C79.4481 29.63 79.2208 29.4595 79.0467 29.2409C78.8495 28.9829 78.7038 28.6893 78.6177 28.3762C78.5121 27.9668 78.4632 27.5448 78.4724 27.1221C78.4625 26.7206 78.5137 26.32 78.6243 25.9339C78.7102 25.6328 78.8561 25.3522 79.0533 25.1089C79.2191 24.903 79.4319 24.7401 79.6738 24.6336C79.915 24.5274 80.1759 24.4734 80.4394 24.4752C80.6555 24.464 80.8715 24.5001 81.0721 24.581C81.2728 24.662 81.4533 24.7858 81.6012 24.9438C81.9145 25.352 82.0608 25.8641 82.0104 26.3762H82.017ZM80.38 25.2145C80.2337 25.211 80.0887 25.2442 79.9584 25.3111C79.8282 25.378 79.7167 25.4764 79.6342 25.5973C79.4262 25.9349 79.3144 26.3229 79.3107 26.7194H81.1985C81.2033 26.6667 81.2033 26.6137 81.1985 26.561C81.1985 26.495 81.1985 26.4224 81.1985 26.3432C81.2168 26.0477 81.1405 25.7541 80.9807 25.5049C80.9104 25.4111 80.8185 25.3356 80.7128 25.2851C80.607 25.2345 80.4906 25.2103 80.3734 25.2145H80.38ZM90.215 29.7953H89.1853L88.5252 27.4191H86.2744L85.6144 29.7953H84.6705L87.0929 22.3696H87.8256L90.215 29.7953ZM88.3074 26.6996L87.7266 24.6666C87.6474 24.396 87.5748 24.132 87.5219 23.8877C87.4697 23.6844 87.4366 23.4767 87.4229 23.2673C87.4108 23.473 87.3753 23.6767 87.3173 23.8745C87.2579 24.1188 87.1853 24.3696 87.1127 24.6468L86.479 26.6996H88.3074ZM93.819 25.6237L93.7134 25.5247C93.5857 25.4168 93.4375 25.336 93.2777 25.2871C93.167 25.2509 93.051 25.2331 92.9345 25.2343C92.7554 25.2348 92.5782 25.2707 92.413 25.3399C92.2462 25.4117 92.1007 25.5254 91.9906 25.6699C91.8596 25.8451 91.7653 26.0449 91.7134 26.2574C91.6395 26.5418 91.604 26.8348 91.6078 27.1287C91.6031 27.4523 91.6341 27.7755 91.7002 28.0924C91.7464 28.3114 91.8337 28.5197 91.9576 28.7062C92.0518 28.854 92.1871 28.9711 92.347 29.0428C92.5103 29.1099 92.6854 29.1436 92.8619 29.1419C93.0734 29.155 93.2843 29.1069 93.4691 29.0032C93.5746 28.9374 93.674 28.8623 93.7662 28.7788L94.116 29.3795C94.0709 29.4373 94.02 29.4904 93.9642 29.5379C93.8815 29.6049 93.7932 29.6645 93.7002 29.7161C93.5751 29.7817 93.4419 29.8305 93.3041 29.8613C93.1313 29.9033 92.9539 29.9232 92.7761 29.9207C92.4994 29.9231 92.2244 29.8762 91.9642 29.7821C91.7084 29.6868 91.4812 29.5277 91.3041 29.3201C91.0999 29.0721 90.9493 28.7844 90.8619 28.4752C90.7443 28.0588 90.6887 27.6273 90.6969 27.1947C90.6863 26.7659 90.7534 26.3388 90.8949 25.9339C91.0018 25.6246 91.1727 25.3412 91.3965 25.1023C91.5941 24.9001 91.8327 24.7425 92.0962 24.6402C92.3399 24.5438 92.5998 24.4946 92.8619 24.495C93.0349 24.4938 93.2075 24.5115 93.3767 24.5478C93.5061 24.5796 93.6321 24.6238 93.753 24.6798C93.8464 24.7274 93.933 24.7873 94.0104 24.858L94.1754 25.0098L93.819 25.6237ZM97.3041 25.3333H96.1754V28.198C96.1524 28.4546 96.2003 28.7126 96.314 28.9438C96.3706 29.0137 96.4436 29.0684 96.5266 29.103C96.6096 29.1375 96.6998 29.1509 96.7893 29.1419C96.9017 29.1464 97.0139 29.1285 97.1193 29.0891C97.1912 29.0671 97.2599 29.036 97.3239 28.9966L97.4427 29.6963C97.2038 29.8522 96.9226 29.9306 96.6375 29.9207C96.4537 29.9325 96.2695 29.9057 96.0967 29.842C95.9239 29.7784 95.7664 29.6793 95.6342 29.5511C95.3825 29.1912 95.2656 28.7542 95.3041 28.3168V25.3399H94.6771V24.759L95.3041 24.627L95.4031 23.1881H96.1754V24.627H97.4163L97.3041 25.3333ZM99.1655 29.7887H98.2942V24.627H99.1655V29.7887ZM98.7365 23.3993C98.6567 23.4041 98.5769 23.3912 98.5027 23.3616C98.4285 23.3319 98.3618 23.2862 98.3074 23.2277C98.1961 23.106 98.1344 22.947 98.1344 22.7821C98.1344 22.6172 98.1961 22.4583 98.3074 22.3366C98.4218 22.2265 98.5744 22.165 98.7332 22.165C98.8919 22.165 99.0445 22.2265 99.1589 22.3366C99.2613 22.4625 99.3172 22.6198 99.3172 22.7821C99.3172 22.9444 99.2613 23.1017 99.1589 23.2277C99.1049 23.2849 99.0393 23.3299 98.9664 23.3595C98.8935 23.3891 98.8151 23.4027 98.7365 23.3993ZM100.268 27.2343C100.258 26.8189 100.314 26.4046 100.433 26.0065C100.527 25.6986 100.679 25.4117 100.882 25.1617C101.06 24.9504 101.286 24.7852 101.542 24.6798C101.792 24.5731 102.062 24.5192 102.334 24.5214C102.608 24.5183 102.88 24.5723 103.132 24.6798C103.39 24.7823 103.617 24.948 103.793 25.1617C103.986 25.4135 104.13 25.7004 104.215 26.0065C104.328 26.4057 104.382 26.8195 104.373 27.2343C104.384 27.6518 104.328 28.0684 104.208 28.4686C104.121 28.7778 103.97 29.0655 103.766 29.3135C103.589 29.5261 103.362 29.6916 103.106 29.7953C102.854 29.8957 102.585 29.9472 102.314 29.9471C102.04 29.9491 101.769 29.8975 101.515 29.7953C101.256 29.6972 101.028 29.5307 100.855 29.3135C100.659 29.0645 100.514 28.7798 100.426 28.4752C100.313 28.0647 100.26 27.6401 100.268 27.2145V27.2343ZM103.443 27.2343C103.481 26.7143 103.376 26.1938 103.139 25.7293C103.054 25.5838 102.931 25.4637 102.784 25.3813C102.636 25.299 102.47 25.2573 102.301 25.2607C102.133 25.2564 101.967 25.2977 101.82 25.3802C101.674 25.4628 101.553 25.5834 101.469 25.7293C101.238 26.1957 101.136 26.7151 101.172 27.2343C101.133 27.7472 101.236 28.2609 101.469 28.7194C101.558 28.8618 101.683 28.9782 101.831 29.057C101.98 29.1358 102.146 29.1741 102.314 29.1683C102.48 29.1745 102.645 29.1362 102.791 29.0573C102.937 28.9783 103.06 28.8617 103.146 28.7194C103.382 28.255 103.485 27.7339 103.443 27.2145V27.2343ZM108.261 29.8151V26.5148C108.29 26.1872 108.214 25.8589 108.043 25.5775C107.964 25.4803 107.863 25.4033 107.748 25.3528C107.634 25.3023 107.508 25.2798 107.383 25.2871C107.147 25.2759 106.914 25.3457 106.723 25.4851C106.571 25.5917 106.433 25.7183 106.314 25.8613V29.8217H105.443V24.627H106.241V25.2145C106.279 25.145 106.326 25.0806 106.38 25.023C106.465 24.9327 106.56 24.8529 106.664 24.7854C106.793 24.7052 106.93 24.6388 107.073 24.5874C107.245 24.527 107.426 24.4979 107.608 24.5016C107.821 24.4986 108.033 24.5321 108.235 24.6006C108.418 24.6698 108.581 24.7831 108.71 24.9306C108.847 25.1051 108.948 25.3047 109.007 25.5181C109.088 25.8081 109.126 26.1083 109.119 26.4092V29.7953L108.261 29.8151Z" fill="#B1B5C4"/>
<path d="M19.3367 11.0047C19.3778 10.6832 19.3972 10.3592 19.3949 10.0351C19.3949 9.86058 19.3949 9.66667 19.3949 9.43397C22.0418 9.43397 24.3688 7.49482 24.3688 5.29388C24.2908 4.36348 23.8854 3.49087 23.2247 2.83116L23.5059 2.77299C23.9441 3.16524 24.3 3.64065 24.553 4.1716C24.806 4.70256 24.951 5.27848 24.9796 5.86593C24.9796 8.50318 22.3424 10.9465 19.3367 11.0047ZM16.6704 1.8325C16.6237 1.54845 16.5107 1.2794 16.3407 1.04714C16.3407 0.77566 16.4571 0.523571 16.8934 0.727181C16.6607 0.969575 16.8352 1.39619 16.8352 1.39619C16.8352 1.39619 17.32 1.17319 17.2133 0.853226C17.9211 1.02775 17.4169 1.97793 16.6704 1.8228V1.8325ZM16.0498 3.18021C15.9456 2.77986 15.7572 2.40634 15.4972 2.08459C15.3623 1.90577 15.1901 1.75849 14.9925 1.653C14.7949 1.54751 14.5767 1.48635 14.3531 1.47375C14.0455 1.49847 13.7441 1.57381 13.4611 1.69676C13.3235 1.45625 13.2284 1.19387 13.1799 0.921097C13.1799 0.727182 13.5095 0.533266 14.1495 0.533266C15.5166 0.533266 16.3407 1.15379 16.3407 2.19124C16.3171 2.52954 16.2247 2.85946 16.0692 3.16082L16.0498 3.18021ZM19.5888 20.8362C19.7012 20.8363 19.8128 20.856 19.9184 20.8944C20.4533 22.0216 21.1031 23.0905 21.8576 24.0843C22.5596 23.9658 23.2692 23.8977 23.981 23.8806C24.0239 23.8744 24.0676 23.8772 24.1093 23.8889C24.1511 23.9006 24.1899 23.9209 24.2234 23.9485C24.2833 24.0256 24.3111 24.1229 24.3009 24.22C24.2916 24.4572 24.2286 24.6893 24.1167 24.8987C23.9169 24.7302 23.685 24.6038 23.4351 24.5271C23.1851 24.4505 22.9223 24.4252 22.6623 24.4527C22.4518 24.4618 22.2433 24.4976 22.0418 24.5593H21.9836H21.9158L22.3424 24.9763C22.9823 25.6259 23.5446 26.1785 23.5446 26.547C23.5233 26.678 23.4753 26.8033 23.4036 26.9151C23.3319 27.0268 23.238 27.1226 23.1277 27.1966C22.9562 26.3923 22.5107 25.6726 21.8673 25.1605L21.8091 25.112V25.3544C21.8091 25.5192 21.8091 25.7616 21.8091 26.0137C21.8091 27.3129 21.6831 27.5069 21.2274 27.5069C21.1501 27.5169 21.0719 27.5169 20.9947 27.5069C21.2772 27.0777 21.4007 26.5632 21.3437 26.0525V25.4514C21.3434 25.2206 21.3629 24.9903 21.4019 24.763V24.6757H21.334C21.0355 24.6279 20.7344 24.5988 20.4323 24.5884C19.944 24.521 19.4488 24.65 19.0555 24.9472C18.8413 24.7918 18.6899 24.5648 18.6289 24.3073C18.6289 24.0358 18.7937 24.0164 19.0167 24.0164H19.3755C19.8856 24.0941 20.4012 24.1297 20.9171 24.123H20.8977V24.0649C20.4497 23.0908 19.8546 22.1915 19.1331 21.3985C19.2203 21.0883 19.3076 20.8847 19.6082 20.8847L19.5888 20.8362ZM11.4056 24.0649V24.123H11.454C11.97 24.1302 12.4856 24.0946 12.9957 24.0164H13.3544C13.5774 24.0164 13.7422 24.0164 13.7422 24.3073C13.6822 24.5627 13.5347 24.789 13.3253 24.9472C12.9259 24.6551 12.4298 24.5267 11.9388 24.5884C11.6367 24.5988 11.3356 24.6279 11.0371 24.6757H10.9693V24.7727C11.0083 25 11.0277 25.2303 11.0274 25.4611V26.0622C10.9724 26.5741 11.0995 27.089 11.3862 27.5166C11.3056 27.5258 11.2243 27.5258 11.1438 27.5166C10.6978 27.5166 10.562 27.3226 10.562 26.0234C10.562 25.7713 10.562 25.5289 10.562 25.3641V25.1217L10.5136 25.1702C9.80457 25.671 9.30697 26.4174 9.11736 27.2645C8.99086 27.1997 8.88012 27.108 8.793 26.9958C8.70587 26.8835 8.64449 26.7535 8.61318 26.6148C8.61318 26.2464 9.16584 25.6937 9.81546 25.0441L10.2324 24.6757H10.2809H10.1548C9.95646 24.6147 9.75125 24.5789 9.54398 24.569C9.28245 24.5402 9.01778 24.5648 8.76609 24.6415C8.51439 24.7182 8.28093 24.8453 8.07992 25.015C7.968 24.8056 7.90502 24.5736 7.8957 24.3363C7.88553 24.2392 7.91333 24.1419 7.97327 24.0649C8.00872 24.0375 8.04925 24.0174 8.09252 24.0057C8.13579 23.9941 8.18094 23.9911 8.22535 23.997C8.93703 24.0151 9.64657 24.0832 10.3487 24.2006C11.1172 23.2071 11.7831 22.1383 12.3364 21.0107C12.4415 20.9702 12.5534 20.9505 12.666 20.9525C12.9569 20.9525 13.0441 21.1561 13.1314 21.4664C12.412 22.259 11.82 23.1585 11.3765 24.1327L11.4056 24.0649ZM7.26548 5.86593C7.33838 4.69499 7.87169 3.60048 8.74893 2.82146L9.0301 2.87964C8.37641 3.54318 7.97515 4.4143 7.8957 5.34236C7.8957 7.56269 10.2615 9.48245 12.9375 9.48245C12.9375 9.67636 12.9375 9.87997 12.9375 10.0836C12.9364 10.4074 12.9526 10.7311 12.986 11.0532C9.9512 11.0532 7.28487 8.57105 7.28487 5.91441L7.26548 5.86593ZM27.646 10.5878C29.0131 12.7402 30.0796 12.7014 31.6794 12.7014C30.6378 11.8613 29.7489 10.8478 29.0518 9.70545L26.5212 5.68171C26.2728 4.4367 25.6303 3.30468 24.6887 2.45303C24.9546 2.36807 25.2062 2.24389 25.4353 2.08459C23.8161 2.08459 22.2066 1.26045 21.3243 1.26045C21.2072 1.24106 21.0873 1.2469 20.9727 1.27757C20.858 1.30824 20.7512 1.36304 20.6594 1.43831C20.5676 1.51357 20.493 1.60756 20.4404 1.714C20.3879 1.82044 20.3587 1.93687 20.3547 2.0555C20.3547 2.54998 20.9074 3.02508 21.8673 3.02508C22.1338 3.01874 22.3996 2.99282 22.6623 2.94751C23.2341 3.57922 23.5757 4.38552 23.6319 5.23571C23.6319 6.98094 21.5473 8.33835 19.4433 8.33835H19.0943C18.6807 7.7602 18.3994 7.09819 18.2702 6.3992C18.2702 5.0224 19.1719 3.888 19.1719 2.5209C19.1651 1.93873 18.9637 1.37557 18.5998 0.921097C18.85 0.718144 19.0576 0.467714 19.2106 0.184219C19.021 0.250661 18.8196 0.277072 18.6192 0.261785C17.6496 0.261785 16.7867 0 15.9917 0C15.536 0 15.4099 0.135741 15.4099 0.271481C15.4037 0.313264 15.4037 0.355743 15.4099 0.397526C15.2434 0.333391 15.0714 0.284707 14.896 0.25209C14.6379 0.19634 14.3748 0.167101 14.1107 0.164828C13.1411 0.164828 12.7921 0.572049 12.7921 0.921097C12.8619 1.36958 13.0308 1.79685 13.2865 2.17185C13.6122 1.99987 13.9675 1.89129 14.3337 1.85189C14.6158 1.89704 14.8794 2.02118 15.0939 2.20993C15.3083 2.39869 15.465 2.64433 15.5456 2.91842C15.2961 2.96248 15.0428 2.98196 14.7894 2.9766C14.2263 2.94493 13.6709 2.83059 13.1411 2.63725C13.1411 2.63725 13.4126 3.12203 13.9362 3.31595C14.5691 3.505 15.2183 3.63484 15.8753 3.70378C15.8026 3.88556 15.6689 4.03638 15.4972 4.13039H15.3711C14.7344 4.01883 14.1129 3.83336 13.5192 3.57773C13.5192 3.93648 14.4888 4.75092 15.313 5.06118C14.363 5.99702 13.6227 7.12398 13.1411 8.36744H12.7921C10.6881 8.36744 8.61318 7.01003 8.61318 5.26479C8.66935 4.41461 9.011 3.60831 9.58276 2.9766C9.8454 3.02281 10.1112 3.04874 10.3778 3.05416C11.3474 3.05416 11.8419 2.54029 11.8807 2.08459C11.8767 1.96595 11.8475 1.84953 11.795 1.74309C11.7424 1.63665 11.6678 1.54266 11.576 1.46739C11.4842 1.39213 11.3774 1.33733 11.2627 1.30666C11.1481 1.27598 11.0282 1.27015 10.9111 1.28954C10.0191 1.28954 8.41927 2.11367 6.79038 2.11367C7.02062 2.27108 7.27197 2.39512 7.53696 2.48211C6.60436 3.3275 5.9658 4.44838 5.71415 5.68171L3.23204 9.65697C2.53868 10.802 1.64928 11.8161 0.604492 12.653C2.21399 12.653 3.28052 12.653 4.63793 10.5393L5.90807 8.50318C6.00634 8.76949 6.12297 9.02867 6.25712 9.27884L3.72653 13.3317C3.02822 14.4732 2.1357 15.4838 1.08928 16.318C2.69878 16.318 3.76531 16.318 5.12271 14.2043L7.32365 10.7138C7.48852 10.8916 7.66333 11.0599 7.84722 11.218L4.74458 16.1531C4.05095 17.2952 3.1615 18.3061 2.11703 19.1394C3.72652 19.1394 4.79306 19.1394 6.15046 17.0257L9.14645 12.2263L9.75728 12.5851L6.09229 18.4025C5.3999 19.5653 4.5032 20.5934 3.44535 21.4373C5.05484 21.4373 6.12138 21.4373 7.47878 19.3236L11.2504 13.2832L11.9291 13.5256L7.6727 20.3126C6.97566 21.4549 6.08677 22.4685 5.04515 23.3086C6.64495 23.3086 7.71148 23.3086 9.07858 21.1949L13.6162 13.9231H13.7519C13.8817 14.2845 13.9537 14.664 13.9652 15.0478C13.9652 17.3263 12.4624 19.343 10.6687 20.8653C10.8283 20.9164 10.9957 20.9394 11.1632 20.9331C11.4245 20.9546 11.6872 20.9546 11.9485 20.9331C11.4623 21.9324 10.888 22.8864 10.2324 23.7837C9.5691 23.6708 8.8981 23.6092 8.22535 23.5995C7.63391 23.5995 7.56604 23.9388 7.56604 24.2491C7.56406 24.4754 7.61163 24.6995 7.70543 24.9055C7.79923 25.1115 7.93697 25.2945 8.10901 25.4417C8.21566 25.1702 8.43866 24.8017 9.52459 24.8017H9.63124C9.2628 25.1605 8.29322 25.9652 8.29322 26.6148C8.31977 26.892 8.44323 27.1509 8.64186 27.346C8.84049 27.5411 9.10157 27.6598 9.37915 27.6814C9.36135 27.5625 9.36135 27.4416 9.37915 27.3226C9.48581 26.7204 9.78525 26.1692 10.2324 25.7519C10.2274 25.8391 10.2274 25.9265 10.2324 26.0137C10.2324 27.2548 10.3487 27.8268 11.1341 27.8268C11.4071 27.8178 11.6695 27.719 11.8807 27.5456C11.667 27.3578 11.505 27.1184 11.4099 26.8503C11.3149 26.5822 11.29 26.2942 11.3377 26.0137C11.3377 25.8392 11.3377 25.655 11.3377 25.4126C11.3525 25.2416 11.3525 25.0697 11.3377 24.8987C11.5409 24.8814 11.7453 24.8814 11.9485 24.8987C11.9485 24.8987 13.0635 24.8114 13.335 25.3835C13.6356 25.112 14.0719 24.7145 14.0719 24.2879C14.0719 23.8613 13.9362 23.677 13.3641 23.677C13.1508 23.677 12.4624 23.8128 11.8904 23.8128C12.3058 23.0797 12.786 22.3853 13.3253 21.7379C13.4105 22.0676 13.6012 22.3604 13.8683 22.5717C13.9655 21.559 14.3265 20.5895 14.9154 19.7599C15.0475 20.5709 15.1124 21.3914 15.1093 22.213C15.1093 25.2865 14.3725 27.5553 12.8018 28.0304C12.9136 28.2236 13.071 28.3865 13.2603 28.5048C13.4496 28.6231 13.665 28.6933 13.8877 28.7091C14.4597 28.7091 14.77 28.0498 15.0899 27.439C15.2548 27.8947 15.7202 29 16.1759 29C16.6316 29 17.097 27.8947 17.2618 27.439C17.5818 28.0498 17.892 28.7091 18.4641 28.7091C18.6869 28.6941 18.9027 28.6243 19.0921 28.5059C19.2815 28.3875 19.4388 28.2242 19.55 28.0304C17.9793 27.5941 17.2424 25.3253 17.2424 22.213C17.2363 21.3908 17.3044 20.5698 17.446 19.7599C18.0264 20.594 18.3866 21.5612 18.4932 22.5717C18.7543 22.3551 18.9436 22.0643 19.0361 21.7379C19.5697 22.3874 20.0466 23.0816 20.4614 23.8128C19.8893 23.8128 19.2106 23.677 18.9876 23.677C18.4156 23.677 18.2799 23.997 18.2799 24.2879C18.2799 24.5787 18.7162 25.112 19.0264 25.3835C19.2882 24.8114 20.4032 24.8987 20.4032 24.8987C20.6097 24.8814 20.8173 24.8814 21.0238 24.8987C21.009 25.0697 21.009 25.2416 21.0238 25.4126V26.0137C21.0675 26.307 21.0331 26.6066 20.9242 26.8823C20.8152 27.1581 20.6356 27.4002 20.4032 27.5844C20.6102 27.7583 20.8698 27.8574 21.1401 27.8656C21.9255 27.8656 22.0418 27.2935 22.0418 26.0525C22.0468 25.9653 22.0468 25.8779 22.0418 25.7907C22.4948 26.2048 22.7982 26.757 22.9047 27.3614C22.9218 27.4804 22.9218 27.6012 22.9047 27.7202C23.1807 27.6869 23.4364 27.5582 23.6276 27.3564C23.8188 27.1545 23.9335 26.8923 23.9519 26.6148C23.9519 25.9749 22.9823 25.1702 22.6332 24.8211H22.7496C23.8355 24.8211 24.0488 25.1896 24.1555 25.4611C24.3275 25.3139 24.4653 25.1309 24.5591 24.9249C24.6529 24.7189 24.7004 24.4948 24.6984 24.2685C24.6984 23.9582 24.6306 23.6189 24.0488 23.6189C23.3761 23.6286 22.7051 23.6902 22.0418 23.8031C21.3685 22.9254 20.7778 21.9874 20.2772 21.001C20.5353 21.0226 20.7947 21.0226 21.0528 21.001C21.2235 21.007 21.394 20.9841 21.557 20.9331C19.7536 19.3721 18.2605 17.3554 18.2605 15.1157C18.2751 14.7394 18.3437 14.3672 18.4641 14.0104H18.5998L23.1471 21.2822C24.5045 23.4346 25.5711 23.3959 27.1806 23.3959C26.1358 22.559 25.2464 21.5449 24.553 20.3999L20.2869 13.6128L20.9656 13.3704L24.776 19.3236C26.1334 21.4761 27.1999 21.4373 28.8094 21.4373C27.7647 20.6005 26.8752 19.5864 26.1819 18.4413L22.5169 12.6239C22.7302 12.5075 22.9338 12.3912 23.1277 12.2651L26.1334 17.0645C27.4908 19.217 28.5574 19.1782 30.1572 19.1782C29.1153 18.3421 28.2263 17.3317 27.5296 16.1919L24.456 11.2568C24.6306 11.1016 24.8051 10.9271 24.9699 10.7526L27.1515 14.2431C28.5089 16.3955 29.5754 16.3567 31.1849 16.3567C30.1383 15.5256 29.2485 14.5143 28.5574 13.3704L26.0171 9.31762C26.1512 9.06745 26.2678 8.80827 26.3661 8.54196L27.646 10.5878Z" fill="#B1B5C4"/>
</svg>
