<svg width="108" height="40" viewBox="0 0 108 40" fill="none" xmlns="http://www.w3.org/2000/svg">
<path fill-rule="evenodd" clip-rule="evenodd" d="M0.894775 19.9996C0.894775 8.87384 24.6263 0 54.2313 0C83.6415 0 107.569 8.97159 107.569 19.9996C107.569 31.0276 83.6415 40 54.2313 40C24.8218 40 0.894775 31.0576 0.894775 19.9996ZM75.4912 24.4571C75.3748 24.4156 75.2545 24.3278 75.2402 24.2362L75.2399 24.2358C75.2256 24.1804 75.2255 24.1232 75.2589 24.0554C75.6899 23.181 75.997 22.067 75.0347 21.608C74.1047 21.1606 72.6876 21.9792 71.4057 23.5573C70.3542 24.8488 69.7848 26.1629 69.7657 27.4429C69.7579 27.8981 69.9318 28.4604 70.3335 28.6689C71.238 29.1459 72.332 28.4363 73.1198 27.7844C73.642 27.3555 74.0734 26.9096 74.4565 26.3381C74.5176 26.2474 74.5763 26.1611 74.633 26.0777L74.633 26.0777L74.6331 26.0776C74.963 25.5926 75.2269 25.2047 75.5102 24.5973C75.5551 24.5 75.5341 24.4714 75.4912 24.4571ZM85.4076 14.051C85.5619 14.051 85.6347 14.1402 85.5655 14.2623L85.5638 14.2588C85.4482 14.4588 84.7307 15.5682 83.7525 17.0809L83.7518 17.082C81.2985 20.8757 77.206 27.2043 76.8533 28.0838C76.6977 28.4735 76.6796 28.7704 76.8389 28.985C77.2475 29.5382 78.1571 29.2168 78.7279 28.8185C79.941 27.9821 80.8863 27.0202 81.8035 26.0869C82.1657 25.7183 82.5235 25.3542 82.8917 25.004C82.9652 24.9485 83.0935 24.927 83.1808 25.0014C83.2464 25.0625 83.3223 25.1297 83.4016 25.1999L83.4017 25.2L83.4018 25.2001C83.5539 25.3348 83.7182 25.4804 83.8452 25.6133C83.9368 25.7111 83.9024 25.8075 83.8547 25.8676C82.5858 27.418 81.181 28.8821 79.8384 29.9184C77.7472 31.5369 75.6635 31.9476 74.6309 30.9113C74.2457 30.5246 74.0376 29.9721 74.009 29.5065C73.9966 29.2532 73.8674 29.2408 73.7467 29.3581C72.5144 30.5776 70.3729 31.9286 68.4236 30.9674C66.7947 30.1623 66.4178 28.2204 66.7231 26.5814C66.7279 26.5461 66.6931 26.3147 66.4946 26.4531C66.1546 26.6962 65.7117 26.9647 65.1598 27.1694C64.4817 27.4227 64.1634 27.5206 63.5346 27.511C62.7442 27.5059 62.0316 27.1696 61.5286 26.387C61.2486 25.9636 61.1341 25.319 61.1055 24.8476C61.1026 24.7951 61.0339 24.7041 60.9595 24.8238C59.9404 26.38 58.9737 27.897 57.9843 29.4497L57.9841 29.4499L57.9826 29.4523C57.6809 29.9258 57.3771 30.4025 57.0691 30.8847C57.0009 30.9806 56.9402 31.0445 56.8043 31.0493L56.1852 31.049H56.1838H56.1834C55.5448 31.0486 54.8732 31.0481 54.1972 31.0515C54.0359 31.0515 53.9606 30.9294 54.0455 30.7743C54.2217 30.4345 54.6961 29.6914 55.3109 28.7283L55.311 28.7282L55.3112 28.728L55.3112 28.7279C56.3143 27.1567 57.6909 25.0003 58.7563 23.0549C59.2301 22.1934 59.1346 21.7488 58.8393 21.5575C58.4715 21.319 57.74 21.6781 57.1219 22.149C55.7077 23.2201 54.4839 24.7923 53.7027 25.7957C53.5528 25.9883 53.4192 26.16 53.3037 26.3031C53.1676 26.4716 53.0341 26.6655 52.8789 26.891L52.8789 26.891C52.5512 27.3671 52.1268 27.9837 51.3773 28.7972C49.6395 30.6835 47.3372 31.7669 45.1176 31.0184C43.9049 30.6103 43.028 29.6346 42.6931 28.4398C42.6263 28.2075 42.497 28.143 42.371 28.2962C42.0122 28.7429 41.2788 29.4014 40.6658 29.817C40.5995 29.8637 40.434 29.9625 40.2914 29.8924C40.1628 29.835 39.7072 29.1916 39.618 29.0064C39.5512 28.8695 39.6103 28.7226 39.6895 28.652C40.5655 27.8827 41.0446 27.446 41.4263 26.9663C41.7093 26.6096 41.9282 26.2075 42.1844 25.5626C42.7163 24.2204 43.93 21.7115 46.3508 20.4152C47.2753 19.9201 48.2112 19.5647 49.2487 19.444C49.6964 19.3953 50.063 19.4516 50.1942 19.8004C50.2137 19.8571 50.2443 19.9399 50.279 20.0339C50.3336 20.1818 50.3984 20.3571 50.4457 20.5007C50.4934 20.6433 50.4585 20.7512 50.2906 20.8161C48.8628 21.3579 47.4312 22.1994 46.4416 23.5242C45.3202 25.0287 45.0164 26.8407 45.7687 27.8825C46.3165 28.6375 47.2016 28.7696 48.0531 28.4996C49.3457 28.0917 50.4454 26.8869 51.0113 25.551C51.6277 24.0924 51.7274 22.3654 51.2732 20.8465C51.1974 20.5854 51.2642 20.3816 51.435 20.2409C51.7158 20.0148 52.0821 19.8284 52.2814 19.727C52.3266 19.704 52.3632 19.6854 52.3883 19.6716C52.6828 19.5075 53.0333 19.6278 53.1998 19.8711C53.6703 20.5704 53.9274 21.5551 53.9513 22.5718C53.9809 22.7865 54.072 22.7918 54.1769 22.6811C54.3881 22.4558 54.5958 22.2268 54.8026 21.9989L54.8027 21.9987L54.8028 21.9986L54.8029 21.9985C55.4209 21.3171 56.0309 20.6445 56.7044 20.1037C57.5244 19.4499 58.5763 18.9153 59.5611 18.9392C60.8296 18.9674 61.4637 19.8307 61.4207 21.3652C61.4165 21.5617 61.5587 21.5484 61.6512 21.4153C62.0312 20.8749 62.2807 20.6057 62.7201 20.2412C63.5964 19.5179 64.4957 19.1916 65.4335 19.2575C66.588 19.3423 67.5105 20.3994 67.322 21.5979C67.2002 22.3705 66.7821 23.0513 66.0706 23.4038C65.4676 23.6984 64.7631 23.6486 64.2709 23.2073C63.8673 22.8369 63.737 22.3087 63.8434 21.7776C63.8659 21.6683 63.7232 21.5643 63.6044 21.6874C62.4761 22.8619 62.3928 24.3804 63.1302 25.0641C63.9451 25.8187 65.1629 25.3132 66.0521 24.7336C66.9986 24.1149 67.8212 23.3691 68.6312 22.6347L68.6312 22.6346C69.2153 22.1051 69.7928 21.5816 70.4055 21.1158C71.3759 20.3787 72.4796 19.7251 73.7186 19.5586C74.4048 19.4675 75.0649 19.5172 75.7401 19.791C76.626 20.1491 77.1883 20.8976 77.2594 21.5488C77.2761 21.7401 77.4202 21.7635 77.5385 21.5965C77.7785 21.2213 78.3776 20.3131 79.0743 19.257L79.0755 19.2552C80.4142 17.2261 82.1123 14.652 82.3156 14.2627C82.4096 14.0766 82.5126 14.0528 82.712 14.0528C83.1351 14.0528 83.6135 14.0523 84.0869 14.0519L84.0897 14.0519C84.5526 14.0514 85.0107 14.051 85.4076 14.051ZM48.813 15.6974C48.8464 15.8739 48.9152 15.9083 48.9953 15.8935C49.3932 15.8139 49.8287 15.4866 50.0865 15.1072C50.3212 14.7632 50.4314 14.2668 50.1981 14.0679C49.9901 13.889 49.6514 13.9396 49.4003 14.1614C48.9003 14.6032 48.7484 15.23 48.8129 15.6978L48.813 15.6974ZM28.9032 31.0069C25.9906 31.026 23.4246 29.2273 23.1301 26.1113C22.9665 24.3846 23.4545 22.8457 24.4317 21.5779C25.2987 20.4482 26.7658 19.5097 28.0077 19.2804C28.4117 19.2065 28.9547 19.2518 29.1792 19.5209C29.5313 19.9307 29.4301 20.3809 29.078 20.5605C28.1306 21.0442 26.9905 21.8723 26.4264 23.0031C25.9689 23.9261 25.8765 25.0384 26.5753 26.098C27.745 27.864 31.0054 27.9125 34.0369 25.0962C34.7877 24.4069 35.4596 23.7446 36.1425 22.9602C37.4777 21.4335 37.9218 20.8772 39.6967 18.4153C39.7158 18.3867 39.7253 18.3494 39.7157 18.3313C39.7014 18.2979 39.6776 18.2931 39.6247 18.2883C38.4398 18.3217 37.4068 18.6744 36.4028 19.4247C36.1136 19.6356 35.6975 19.606 35.5153 19.3283C35.3125 19.0144 35.4581 18.6057 35.7916 18.375C37.2602 17.3536 38.8522 17.0925 40.4836 16.8249C40.6464 16.7982 40.8096 16.7714 40.9731 16.7438C40.9716 16.7438 41.0981 16.7486 41.2012 16.6131C41.5143 16.2111 41.795 15.8259 42.0745 15.4424L42.0745 15.4423C42.4551 14.92 42.8332 14.401 43.2879 13.8474C44.0824 12.8734 45.1086 11.9789 45.8927 11.307C46.8384 10.4939 47.491 10.1469 48.1112 9.81719C48.2087 9.76532 48.3055 9.71387 48.4025 9.6611C48.5904 9.56282 48.3786 9.44548 48.3214 9.44548C48.0289 9.39051 47.7356 9.33436 47.4416 9.27807C43.7317 8.5678 39.9085 7.83584 36.2437 9.19258C33.5044 10.2148 32.3039 12.3871 32.8813 13.8386C33.2921 14.8683 34.6463 15.0357 35.9141 14.4153C36.967 13.8993 37.9415 13.0678 38.6322 11.9974C39.0187 11.403 39.833 11.8319 39.393 12.8641C38.2356 15.5845 36.0244 17.7424 33.331 17.8335C31.0388 17.9079 29.5598 16.2216 29.5646 14.1412C29.5742 10.0378 34.1422 7.33479 38.943 6.93071C42.9882 6.5964 46.8839 7.24994 50.8252 7.91113C52.517 8.19493 54.2171 8.48015 55.9411 8.68926C60.3393 9.22188 64.5561 9.23296 68.9769 8.21739C69.4995 8.10385 69.8662 8.43732 69.8321 8.96516C69.7892 9.72816 69.198 10.463 67.7421 11.2571C66.0861 12.1653 64.3538 12.4408 62.5445 12.4556C59.5357 12.4819 56.6686 11.6826 53.7996 10.8829C52.497 10.5197 51.194 10.1565 49.8773 9.87039C49.8781 9.90266 49.8803 9.93601 49.8825 9.96969C49.8928 10.1287 49.9037 10.2953 49.7761 10.3915C47.4402 12.1145 45.3287 13.8642 43.9146 16.3217C43.8669 16.3784 43.8907 16.4324 43.9752 16.4266C44.3758 16.4053 44.7633 16.3876 45.1434 16.3702L45.144 16.3702L45.1441 16.3702C45.9285 16.3343 46.6814 16.2999 47.4534 16.2382C47.6538 16.2191 47.6614 16.1714 47.6437 16.0254C47.5421 15.1783 47.7897 14.2124 48.5348 13.548C49.2974 12.8642 50.2523 12.7865 50.8853 13.2789C51.6049 13.8397 51.5412 14.8481 51.1476 15.6045C50.7469 16.3719 50.0851 16.7823 49.4499 16.9816C49.4499 16.9816 49.3163 17.0102 49.3363 17.1314C49.3507 17.2482 49.6715 17.469 49.9403 17.6539C50.1171 17.7756 50.2714 17.8817 50.3008 17.9324C50.3724 18.0541 50.3342 18.2426 50.204 18.3871C50.1124 18.4921 49.9688 18.5904 49.7851 18.587C49.6417 18.5842 49.5526 18.536 49.3754 18.4402L49.3567 18.4301C48.9683 18.2197 48.483 17.8738 48.1592 17.466C48.049 17.3281 47.9927 17.3253 47.7174 17.3405C46.477 17.4121 44.543 17.5991 43.2326 17.7628C42.9148 17.8009 42.8681 17.8615 42.8027 17.9717L42.6612 18.205L42.6612 18.205C40.6127 21.5838 38.4274 25.1883 36.0333 27.6197C33.4062 30.2868 31.2225 30.989 28.9043 31.0071L28.9032 31.0069ZM4.91778 20.006C4.91778 10.7965 26.9944 3.27039 54.2302 3.27039C81.4655 3.27039 103.541 10.7965 103.541 20.006C103.541 29.2161 81.4655 36.7429 54.2302 36.7429C26.9944 36.7429 4.91778 29.2161 4.91778 20.006ZM3.12072 20.006C3.12072 30.0872 26.003 38.2596 54.2302 38.2596C82.4548 38.2596 105.336 30.0872 105.336 20.006C105.336 9.92317 82.4548 1.75228 54.2302 1.75228C26.003 1.75228 3.12072 9.92317 3.12072 20.006Z" fill="#B1B5C4"/>
</svg>
