<svg width="126" height="30" viewBox="0 0 126 30" fill="none" xmlns="http://www.w3.org/2000/svg">
<path d="M110.445 0.863678C102.548 0.863678 96.135 7.19022 96.135 15C96.135 22.8098 102.548 29.1363 110.445 29.1363C118.342 29.1363 124.756 22.8098 124.756 15C124.756 7.19022 118.342 0.863678 110.445 0.863678ZM1.06482 1.99789V6.57905H11.7542V23.4644H1.06482V28.0456H27.0682V23.4644H16.4223V6.57905H27.0682V1.99789H1.06482ZM33.9621 1.99789V28.0013H46.4401C54.5117 27.914 60.0524 22.2428 60.0524 14.9565C60.0524 7.75758 54.599 2.21604 46.6583 1.99789H33.9621ZM65.7243 1.99789V28.0456H91.9902V23.4644H70.4367V17.3119H87.2343V12.7307H70.4367V6.57905H91.9902V1.99789H65.7243ZM110.445 5.79422C115.594 5.79422 119.826 9.93874 119.826 15.0435C119.826 20.1482 115.594 24.2927 110.445 24.2927C105.297 24.2927 101.065 20.1482 101.065 15.0435C101.065 9.93874 105.253 5.79422 110.445 5.79422ZM38.6302 6.49213H46.5271C51.6318 6.62302 54.9915 10.2005 54.9915 15.0435C54.9478 19.93 51.5885 23.4641 46.4401 23.5513H38.6302V6.49213Z" fill="#B1B5C4"/>
</svg>
