<svg width="122" height="30" viewBox="0 0 122 30" fill="none" xmlns="http://www.w3.org/2000/svg">
<path d="M101.774 20.2434H107.973C108.68 15.7849 109.407 11.2371 110.139 6.75565C110.288 5.85436 110.675 5.47003 111.082 5.16804C111.466 4.8704 111.873 4.71991 112.452 4.71991H117.064L119.359 0.858397H110.716C109.43 0.884336 107.564 1.39599 106.106 2.597C104.821 3.64705 103.963 5.23465 103.727 6.67125L101.774 18.8711V20.2434ZM101.774 2.2307V0.8581H101.991L101.774 2.2307ZM101.538 20.2434H101.774V18.8708L101.538 20.2434ZM101.774 0.8581V2.2307L98.8591 20.2434H84.9847C83.3559 20.2434 81.9833 19.4931 81.146 18.4202C80.4186 17.4983 79.8833 16.2127 80.2241 14.2407C80.9539 9.73637 81.6425 5.34188 82.3699 0.8581H88.8027L86.7027 13.8541C86.5082 14.9476 86.5723 15.332 86.8925 15.762C87.1739 16.1258 87.6658 16.3612 88.2011 16.3865C89.8321 16.3605 91.4609 16.3865 93.0714 16.3865L95.5764 0.880957L101.774 0.8581ZM67.704 20.2434V16.3866H68.8386C69.0536 16.3866 69.2916 16.3607 69.4814 16.2971C69.7834 16.2122 70.0419 16.0617 70.2775 15.8899C70.7488 15.5261 71.0485 15.0114 71.156 14.4967C71.5632 11.9666 71.9704 9.45709 72.3776 6.94988C72.4439 6.54006 72.4622 6.1332 72.3568 5.7923C72.2926 5.59776 72.1624 5.40322 72.0366 5.25472C71.7757 4.91168 71.3708 4.71971 70.8127 4.71971H67.7038V0.858199H73.7294C75.7654 0.838745 76.8383 1.56736 77.6733 2.46639C78.0805 2.89632 78.4259 3.43407 78.6386 4.054C78.8743 4.76088 78.9818 5.57756 78.8308 6.49948C78.403 9.26523 77.9546 11.8799 77.5017 14.6686C77.202 16.2767 76.367 17.4984 75.3147 18.4661C74.8435 18.8914 74.2853 19.2575 73.6859 19.5572C72.7617 20.0079 71.627 20.2435 70.6617 20.2435L67.704 20.2434ZM67.704 0.8581V4.71971H64.8719L62.9869 16.3866H67.704V20.2434H65.1967C64.0804 20.2434 63.1996 20.1132 62.4287 19.7928C62.0855 22.1949 61.7195 24.6174 61.3558 27.0171L55.5018 28.8632V23.2014L57.7322 9.32927L62.0009 7.0988L58.4414 4.71971L59.0842 0.8581H67.704ZM55.5018 4.71971H55.8243L56.4442 0.8581H55.5018L55.5018 4.71971ZM55.5018 0.8581V4.71971H43.9882C43.1944 4.71971 42.4898 5.21376 42.0803 5.8772C41.8881 6.22023 41.7806 6.60463 41.7577 6.99124C41.7169 7.63646 42.2748 8.62011 43.3865 8.62011H50.2288C51.3635 8.62011 52.5004 9.09349 53.3583 9.86685C54.0446 10.5095 54.5593 11.3241 54.7743 12.3741C54.9025 12.9732 54.9253 13.5751 54.8152 14.282C54.7306 14.9889 54.4743 15.7849 54.1541 16.4254C53.6828 17.3496 53.0377 18.1 52.2233 18.7634C51.0658 19.6647 49.4781 20.2434 48.0621 20.2434H33.7187L34.341 16.3866H46.1771C46.7971 16.3606 47.2912 16.1259 47.6549 15.7621C48.0622 15.3756 48.3412 14.863 48.4053 14.3254C48.4695 13.854 48.2978 13.232 47.87 12.8454C47.6115 12.61 47.2272 12.4816 46.7742 12.4816C44.482 12.4557 42.4026 12.4816 40.1081 12.4816C38.1133 12.4557 36.3998 11.3012 35.6678 9.50084C35.3681 8.79396 35.2834 7.97727 35.3246 7.0988C35.391 6.08993 35.7982 5.08338 36.2694 4.24615C37.5345 2.12549 39.9136 0.880991 42.1875 0.8581H55.5018ZM55.5018 23.2014V28.8632L54.5387 29.1422L55.5018 23.2014ZM11.7624 20.2434V18.6788L14.6128 0.8581H28.6794C31.0356 0.884039 33.6755 3.00399 33.353 6.17691C32.6027 10.8734 31.8523 15.5675 31.102 20.2434H24.692L26.8561 6.73507C26.9842 6.06936 26.7919 5.59818 26.513 5.25502C26.2133 4.91198 25.7626 4.72001 25.2479 4.72001H20.4027L17.9161 20.2438L11.7624 20.2434ZM11.7624 2.44581L11.998 0.8581H11.7624V2.44581ZM11.7624 0.8581V2.44581L8.88914 20.2434H2.47693L4.21323 9.32927L8.50253 7.0988L4.96358 4.71971L5.58584 0.8581H11.7624ZM11.7624 18.6788L11.5039 20.2434H11.7624V18.6788Z" fill="#B1B5C4"/>
</svg>
