<svg width="121" height="40" viewBox="0 0 121 40" fill="none" xmlns="http://www.w3.org/2000/svg">
<path d="M27.7337 8.59742C28.7296 8.59742 29.537 7.7921 29.537 6.79871C29.537 5.80531 28.7296 5 27.7337 5C26.7377 5 25.9303 5.80531 25.9303 6.79871C25.9303 7.7921 26.7377 8.59742 27.7337 8.59742Z" fill="#B1B5C4"/>
<path d="M29.7625 34.0043C30.7585 34.0043 31.5659 33.199 31.5659 32.2056C31.5659 31.2122 30.7585 30.4069 29.7625 30.4069C28.7665 30.4069 27.9591 31.2122 27.9591 32.2056C27.9591 33.199 28.7665 34.0043 29.7625 34.0043Z" fill="#B1B5C4"/>
<path d="M28.2495 13.0941C29.0855 13.0941 29.763 12.4182 29.763 11.5845C29.763 10.7507 29.0855 10.0748 28.2495 10.0748C27.4136 10.0748 26.736 10.7507 26.736 11.5845C26.736 12.4182 27.4136 13.0941 28.2495 13.0941Z" fill="#B1B5C4"/>
<path d="M32.2746 13.6723C33.1105 13.6723 33.7881 12.9964 33.7881 12.1627C33.7881 11.329 33.1105 10.6531 32.2746 10.6531C31.4387 10.6531 30.761 11.329 30.761 12.1627C30.761 12.9964 31.4387 13.6723 32.2746 13.6723Z" fill="#B1B5C4"/>
<path d="M27.7344 16.9165C28.4458 16.9165 29.0225 16.3413 29.0225 15.6318C29.0225 14.9222 28.4458 14.3469 27.7344 14.3469C27.023 14.3469 26.4463 14.9222 26.4463 15.6318C26.4463 16.3413 27.023 16.9165 27.7344 16.9165Z" fill="#B1B5C4"/>
<path d="M31.7595 17.4626C32.4709 17.4626 33.0475 16.8873 33.0475 16.1777C33.0475 15.4682 32.4709 14.893 31.7595 14.893C31.048 14.893 30.4714 15.4682 30.4714 16.1777C30.4714 16.8873 31.048 17.4626 31.7595 17.4626Z" fill="#B1B5C4"/>
<path d="M34.9797 18.7154C35.691 18.7154 36.2678 18.1402 36.2678 17.4306C36.2678 16.7211 35.691 16.1458 34.9797 16.1458C34.2683 16.1458 33.6915 16.7211 33.6915 17.4306C33.6915 18.1402 34.2683 18.7154 34.9797 18.7154Z" fill="#B1B5C4"/>
<path d="M30.5682 20.5459C31.1906 20.5459 31.6953 20.0426 31.6953 19.4218C31.6953 18.8008 31.1906 18.2975 30.5682 18.2975C29.9457 18.2975 29.441 18.8008 29.441 19.4218C29.441 20.0426 29.9457 20.5459 30.5682 20.5459Z" fill="#B1B5C4"/>
<path d="M26.5423 19.9998C27.1648 19.9998 27.6694 19.4965 27.6694 18.8757C27.6694 18.2548 27.1648 17.7515 26.5423 17.7515C25.9198 17.7515 25.4152 18.2548 25.4152 18.8757C25.4152 19.4965 25.9198 19.9998 26.5423 19.9998Z" fill="#B1B5C4"/>
<path d="M33.8201 21.7988C34.4426 21.7988 34.9472 21.2954 34.9472 20.6746C34.9472 20.0537 34.4426 19.5503 33.8201 19.5503C33.1976 19.5503 32.693 20.0537 32.693 20.6746C32.693 21.2954 33.1976 21.7988 33.8201 21.7988Z" fill="#B1B5C4"/>
<path d="M28.9578 22.8908C29.4913 22.8908 29.9239 22.4593 29.9239 21.9272C29.9239 21.3949 29.4913 20.9635 28.9578 20.9635C28.4242 20.9635 27.9917 21.3949 27.9917 21.9272C27.9917 22.4593 28.4242 22.8908 28.9578 22.8908Z" fill="#B1B5C4"/>
<path d="M32.2105 24.1114C32.7441 24.1114 33.1766 23.68 33.1766 23.1478C33.1766 22.6157 32.7441 22.1842 32.2105 22.1842C31.677 22.1842 31.2445 22.6157 31.2445 23.1478C31.2445 23.68 31.677 24.1114 32.2105 24.1114Z" fill="#B1B5C4"/>
<path d="M24.9645 22.3121C25.498 22.3121 25.9305 21.8807 25.9305 21.3485C25.9305 20.8163 25.498 20.3849 24.9645 20.3849C24.4309 20.3849 23.9984 20.8163 23.9984 21.3485C23.9984 21.8807 24.4309 22.3121 24.9645 22.3121Z" fill="#B1B5C4"/>
<path d="M27.1863 24.4649C27.6309 24.4649 27.9913 24.1053 27.9913 23.6619C27.9913 23.2184 27.6309 22.8589 27.1863 22.8589C26.7416 22.8589 26.3812 23.2184 26.3812 23.6619C26.3812 24.1053 26.7416 24.4649 27.1863 24.4649Z" fill="#B1B5C4"/>
<path d="M28.5715 26.681C28.9629 26.681 29.28 26.3647 29.28 25.9744C29.28 25.5841 28.9629 25.2678 28.5715 25.2678C28.1803 25.2678 27.8631 25.5841 27.8631 25.9744C27.8631 26.3647 28.1803 26.681 28.5715 26.681Z" fill="#B1B5C4"/>
<path d="M26.8648 27.1308C27.185 27.1308 27.4445 26.872 27.4445 26.5527C27.4445 26.2334 27.185 25.9745 26.8648 25.9745C26.5447 25.9745 26.2851 26.2334 26.2851 26.5527C26.2851 26.872 26.5447 27.1308 26.8648 27.1308Z" fill="#B1B5C4"/>
<path d="M25.3505 25.4603C25.7418 25.4603 26.059 25.1439 26.059 24.7537C26.059 24.3634 25.7418 24.047 25.3505 24.047C24.9593 24.047 24.6421 24.3634 24.6421 24.7537C24.6421 25.1439 24.9593 25.4603 25.3505 25.4603Z" fill="#B1B5C4"/>
<path d="M23.1612 23.9188C23.6058 23.9188 23.9662 23.5593 23.9662 23.1158C23.9662 22.6723 23.6058 22.3128 23.1612 22.3128C22.7165 22.3128 22.3561 22.6723 22.3561 23.1158C22.3561 23.5593 22.7165 23.9188 23.1612 23.9188Z" fill="#B1B5C4"/>
<path d="M23.1286 17.8796C23.5733 17.8796 23.9337 17.5201 23.9337 17.0766C23.9337 16.6331 23.5733 16.2736 23.1286 16.2736C22.684 16.2736 22.3235 16.6331 22.3235 17.0766C22.3235 17.5201 22.684 17.8796 23.1286 17.8796Z" fill="#B1B5C4"/>
<path d="M23.4829 15.0534C23.8741 15.0534 24.1913 14.737 24.1913 14.3468C24.1913 13.9565 23.8741 13.6402 23.4829 13.6402C23.0916 13.6402 22.7744 13.9565 22.7744 14.3468C22.7744 14.737 23.0916 15.0534 23.4829 15.0534Z" fill="#B1B5C4"/>
<path d="M24.2565 12.7408C24.5767 12.7408 24.8362 12.4819 24.8362 12.1627C24.8362 11.8433 24.5767 11.5845 24.2565 11.5845C23.9365 11.5845 23.6769 11.8433 23.6769 12.1627C23.6769 12.4819 23.9365 12.7408 24.2565 12.7408Z" fill="#B1B5C4"/>
<path d="M22.9035 11.6488C23.2947 11.6488 23.6119 11.3325 23.6119 10.9423C23.6119 10.552 23.2947 10.2356 22.9035 10.2356C22.5122 10.2356 22.195 10.552 22.195 10.9423C22.195 11.3325 22.5122 11.6488 22.9035 11.6488Z" fill="#B1B5C4"/>
<path d="M30.4065 25.6847C30.8511 25.6847 31.2115 25.3253 31.2115 24.8818C31.2115 24.4383 30.8511 24.0788 30.4065 24.0788C29.9619 24.0788 29.6014 24.4383 29.6014 24.8818C29.6014 25.3253 29.9619 25.6847 30.4065 25.6847Z" fill="#B1B5C4"/>
<path d="M21.0681 10.7173C21.5127 10.7173 21.8731 10.3578 21.8731 9.91433C21.8731 9.47083 21.5127 9.11133 21.0681 9.11133C20.6235 9.11133 20.263 9.47083 20.263 9.91433C20.263 10.3578 20.6235 10.7173 21.0681 10.7173Z" fill="#B1B5C4"/>
<path d="M21.6158 14.1222C22.0604 14.1222 22.4209 13.7627 22.4209 13.3193C22.4209 12.8757 22.0604 12.5162 21.6158 12.5162C21.1711 12.5162 20.8107 12.8757 20.8107 13.3193C20.8107 13.7627 21.1711 14.1222 21.6158 14.1222Z" fill="#B1B5C4"/>
<path d="M20.714 17.3663C21.2475 17.3663 21.68 16.9348 21.68 16.4027C21.68 15.8705 21.2475 15.4391 20.714 15.4391C20.1804 15.4391 19.7479 15.8705 19.7479 16.4027C19.7479 16.9348 20.1804 17.3663 20.714 17.3663Z" fill="#B1B5C4"/>
<path d="M17.7834 17.366C18.4058 17.366 18.9105 16.8627 18.9105 16.2418C18.9105 15.6209 18.4058 15.1176 17.7834 15.1176C17.1609 15.1176 16.6562 15.6209 16.6562 16.2418C16.6562 16.8627 17.1609 17.366 17.7834 17.366Z" fill="#B1B5C4"/>
<path d="M14.3701 18.1372C15.0815 18.1372 15.6582 17.562 15.6582 16.8524C15.6582 16.1428 15.0815 15.5677 14.3701 15.5677C13.6587 15.5677 13.082 16.1428 13.082 16.8524C13.082 17.562 13.6587 18.1372 14.3701 18.1372Z" fill="#B1B5C4"/>
<path d="M10.6348 19.9679C11.4707 19.9679 12.1483 19.292 12.1483 18.4583C12.1483 17.6245 11.4707 16.9487 10.6348 16.9487C9.79888 16.9487 9.12126 17.6245 9.12126 18.4583C9.12126 19.292 9.79888 19.9679 10.6348 19.9679Z" fill="#B1B5C4"/>
<path d="M6.77016 23.0513C7.76611 23.0513 8.5735 22.2461 8.5735 21.2527C8.5735 20.2593 7.76611 19.4539 6.77016 19.4539C5.77419 19.4539 4.9668 20.2593 4.9668 21.2527C4.9668 22.2461 5.77419 23.0513 6.77016 23.0513Z" fill="#B1B5C4"/>
<path d="M9.12111 16.2098C9.95705 16.2098 10.6346 15.5339 10.6346 14.7002C10.6346 13.8664 9.95705 13.1905 9.12111 13.1905C8.28521 13.1905 7.60759 13.8664 7.60759 14.7002C7.60759 15.5339 8.28521 16.2098 9.12111 16.2098Z" fill="#B1B5C4"/>
<path d="M12.8565 14.3791C13.5679 14.3791 14.1445 13.8038 14.1445 13.0943C14.1445 12.3848 13.5679 11.8095 12.8565 11.8095C12.145 11.8095 11.5684 12.3848 11.5684 13.0943C11.5684 13.8038 12.145 14.3791 12.8565 14.3791Z" fill="#B1B5C4"/>
<path d="M12.3088 10.9741C13.0202 10.9741 13.5969 10.3989 13.5969 9.68933C13.5969 8.97975 13.0202 8.4045 12.3088 8.4045C11.5974 8.4045 11.0206 8.97975 11.0206 9.68933C11.0206 10.3989 11.5974 10.9741 12.3088 10.9741Z" fill="#B1B5C4"/>
<path d="M15.7228 10.2033C16.3453 10.2033 16.8499 9.7 16.8499 9.07908C16.8499 8.45825 16.3453 7.95492 15.7228 7.95492C15.1003 7.95492 14.5957 8.45825 14.5957 9.07908C14.5957 9.7 15.1003 10.2033 15.7228 10.2033Z" fill="#B1B5C4"/>
<path d="M18.6526 10.2036C19.1861 10.2036 19.6187 9.77217 19.6187 9.24C19.6187 8.70775 19.1861 8.27637 18.6526 8.27637C18.119 8.27637 17.6865 8.70775 17.6865 9.24C17.6865 9.77217 18.119 10.2036 18.6526 10.2036Z" fill="#B1B5C4"/>
<path d="M19.2003 13.6077C19.7339 13.6077 20.1664 13.1763 20.1664 12.6441C20.1664 12.1119 19.7339 11.6805 19.2003 11.6805C18.6667 11.6805 18.2342 12.1119 18.2342 12.6441C18.2342 13.1763 18.6667 13.6077 19.2003 13.6077Z" fill="#B1B5C4"/>
<path d="M16.2697 13.6404C16.8921 13.6404 17.3968 13.1371 17.3968 12.5162C17.3968 11.8953 16.8921 11.392 16.2697 11.392C15.6472 11.392 15.1425 11.8953 15.1425 12.5162C15.1425 13.1371 15.6472 13.6404 16.2697 13.6404Z" fill="#B1B5C4"/>
<path d="M13.0815 22.1842C13.4015 22.1842 13.661 21.9253 13.661 21.606C13.661 21.2867 13.4015 21.0278 13.0815 21.0278C12.7613 21.0278 12.5018 21.2867 12.5018 21.606C12.5018 21.9253 12.7613 22.1842 13.0815 22.1842Z" fill="#B1B5C4"/>
<path d="M15.4002 21.895C15.7915 21.895 16.1086 21.5787 16.1086 21.1884C16.1086 20.7982 15.7915 20.4818 15.4002 20.4818C15.0089 20.4818 14.6917 20.7982 14.6917 21.1884C14.6917 21.5787 15.0089 21.895 15.4002 21.895Z" fill="#B1B5C4"/>
<path d="M17.9439 20.9318C18.3885 20.9318 18.749 20.5723 18.749 20.1287C18.749 19.6853 18.3885 19.3258 17.9439 19.3258C17.4993 19.3258 17.1388 19.6853 17.1388 20.1287C17.1388 20.5723 17.4993 20.9318 17.9439 20.9318Z" fill="#B1B5C4"/>
<path d="M18.5565 23.5011C19.0901 23.5011 19.5226 23.0697 19.5226 22.5375C19.5226 22.0053 19.0901 21.5739 18.5565 21.5739C18.023 21.5739 17.5905 22.0053 17.5905 22.5375C17.5905 23.0697 18.023 23.5011 18.5565 23.5011Z" fill="#B1B5C4"/>
<path d="M15.465 24.1108C15.9097 24.1108 16.2701 23.7513 16.2701 23.3079C16.2701 22.8644 15.9097 22.5049 15.465 22.5049C15.0205 22.5049 14.66 22.8644 14.66 23.3079C14.66 23.7513 15.0205 24.1108 15.465 24.1108Z" fill="#B1B5C4"/>
<path d="M12.7276 24.0789C13.119 24.0789 13.4361 23.7625 13.4361 23.3722C13.4361 22.982 13.119 22.6656 12.7276 22.6656C12.3364 22.6656 12.0192 22.982 12.0192 23.3722C12.0192 23.7625 12.3364 24.0789 12.7276 24.0789Z" fill="#B1B5C4"/>
<path d="M12.7591 26.2955C13.2038 26.2955 13.5642 25.936 13.5642 25.4925C13.5642 25.0491 13.2038 24.6895 12.7591 24.6895C12.3145 24.6895 11.9541 25.0491 11.9541 25.4925C11.9541 25.936 12.3145 26.2955 12.7591 26.2955Z" fill="#B1B5C4"/>
<path d="M16.0444 26.7128C16.578 26.7128 17.0105 26.2813 17.0105 25.7492C17.0105 25.217 16.578 24.7856 16.0444 24.7856C15.5108 24.7856 15.0783 25.217 15.0783 25.7492C15.0783 26.2813 15.5108 26.7128 16.0444 26.7128Z" fill="#B1B5C4"/>
<path d="M19.8773 26.2954C20.4997 26.2954 21.0044 25.7921 21.0044 25.1712C21.0044 24.5503 20.4997 24.047 19.8773 24.047C19.2548 24.047 18.7501 24.5503 18.7501 25.1712C18.7501 25.7921 19.2548 26.2954 19.8773 26.2954Z" fill="#B1B5C4"/>
<path d="M22.1305 29.0898C22.842 29.0898 23.4186 28.5146 23.4186 27.805C23.4186 27.0954 22.842 26.5202 22.1305 26.5202C21.4191 26.5202 20.8425 27.0954 20.8425 27.805C20.8425 28.5146 21.4191 29.0898 22.1305 29.0898Z" fill="#B1B5C4"/>
<path d="M17.3968 29.4753C18.0193 29.4753 18.5239 28.972 18.5239 28.3512C18.5239 27.7302 18.0193 27.227 17.3968 27.227C16.7743 27.227 16.2697 27.7302 16.2697 28.3512C16.2697 28.972 16.7743 29.4753 17.3968 29.4753Z" fill="#B1B5C4"/>
<path d="M14.7243 31.6592C15.3467 31.6592 15.8514 31.1558 15.8514 30.535C15.8514 29.9141 15.3467 29.4108 14.7243 29.4108C14.1018 29.4108 13.5971 29.9141 13.5971 30.535C13.5971 31.1558 14.1018 31.6592 14.7243 31.6592Z" fill="#B1B5C4"/>
<path d="M16.9458 34.4861C17.6572 34.4861 18.234 33.9108 18.234 33.2013C18.234 32.4917 17.6572 31.9165 16.9458 31.9165C16.2344 31.9165 15.6577 32.4917 15.6577 33.2013C15.6577 33.9108 16.2344 34.4861 16.9458 34.4861Z" fill="#B1B5C4"/>
<path d="M22.8711 35.0001C23.707 35.0001 24.3846 34.3242 24.3846 33.4904C24.3846 32.6567 23.707 31.9808 22.8711 31.9808C22.0352 31.9808 21.3575 32.6567 21.3575 33.4904C21.3575 34.3242 22.0352 35.0001 22.8711 35.0001Z" fill="#B1B5C4"/>
<path d="M19.6191 32.3014C20.3305 32.3014 20.9073 31.7262 20.9073 31.0167C20.9073 30.3071 20.3305 29.7318 19.6191 29.7318C18.9078 29.7318 18.331 30.3071 18.331 31.0167C18.331 31.7262 18.9078 32.3014 19.6191 32.3014Z" fill="#B1B5C4"/>
<path d="M25.3515 31.788C26.1875 31.788 26.8651 31.1121 26.8651 30.2783C26.8651 29.4446 26.1875 28.7687 25.3515 28.7687C24.5157 28.7687 23.838 29.4446 23.838 30.2783C23.838 31.1121 24.5157 31.788 25.3515 31.788Z" fill="#B1B5C4"/>
<path d="M13.3719 28.8974C13.9054 28.8974 14.338 28.466 14.338 27.9338C14.338 27.4017 13.9054 26.9703 13.3719 26.9703C12.8383 26.9703 12.4058 27.4017 12.4058 27.9338C12.4058 28.466 12.8383 28.8974 13.3719 28.8974Z" fill="#B1B5C4"/>
<path d="M108.491 12.8124L101.117 29.4825H98.7013L106.784 11.2064C107.074 10.5319 107.75 10.1143 108.459 10.1143C109.199 10.1143 109.843 10.5319 110.133 11.2064L118.216 29.4825H115.801L108.491 12.8124Z" fill="#B1B5C4"/>
<path d="M88.1063 12.2021H81.5692V10.1143H96.8332V12.2021H90.2961V29.4825H88.0741L88.1063 12.2021Z" fill="#B1B5C4"/>
<path d="M56.8377 20.0213C56.8377 14.5931 61.4105 10 66.7884 10C72.1985 10 76.7069 14.561 76.7069 20.0213C76.7069 25.4817 72.1663 30.0427 66.7884 30.0427C61.4427 30.0748 56.8377 25.4817 56.8377 20.0213ZM74.4849 20.0213C74.4849 15.7173 70.9748 12.0557 66.7884 12.0557C62.6021 12.0557 59.0597 15.7173 59.0597 20.0213C59.0597 24.3575 62.6021 28.0192 66.7884 28.0192C70.9748 28.0192 74.4849 24.3575 74.4849 20.0213Z" fill="#B1B5C4"/>
<path d="M47.4668 10.4493H49.6888V29.8174H47.4668V10.4493Z" fill="#B1B5C4"/>
</svg>
