<svg width="141" height="30" viewBox="0 0 141 30" fill="none" xmlns="http://www.w3.org/2000/svg">
<g clip-path="url(#clip0_16_2)">
<path d="M58.5001 5.99999V24H55.3751V9.87499H55.3334L49.7501 24H47.6667L41.9584 9.87499H41.9167V24H39.0417V5.99999H43.5417L48.7084 19.3333H48.7917L54.2501 5.99999H58.5001ZM61.0834 7.37499C61.0834 6.87499 61.2501 6.45832 61.6251 6.12499C62.0001 5.79166 62.4167 5.62499 62.9167 5.62499C63.4584 5.62499 63.9167 5.79166 64.2501 6.12499C64.5834 6.45832 64.7917 6.87499 64.7917 7.37499C64.7917 7.87499 64.6251 8.29166 64.2501 8.62499C63.8751 8.95832 63.4584 9.12499 62.9167 9.12499C62.3751 9.12499 61.9584 8.95832 61.6251 8.62499C61.2917 8.24999 61.0834 7.83332 61.0834 7.37499ZM64.4584 11.0833V24H61.4167V11.0833H64.4584ZM73.6668 21.7917C74.1251 21.7917 74.6251 21.7083 75.1667 21.4583C75.7084 21.25 76.2084 20.9583 76.6668 20.625V23.4583C76.1668 23.75 75.6251 23.9583 75.0001 24.0833C74.3751 24.2083 73.7084 24.2917 72.9584 24.2917C71.0418 24.2917 69.5001 23.7083 68.3334 22.5C67.1251 21.2917 66.5417 19.75 66.5417 17.9167C66.5417 15.8333 67.1668 14.125 68.3751 12.7917C69.5834 11.4583 71.2918 10.7917 73.5418 10.7917C74.1251 10.7917 74.7084 10.875 75.2501 11C75.8334 11.125 76.2917 11.3333 76.6251 11.5V14.4167C76.1667 14.0833 75.6668 13.7917 75.2084 13.625C74.7084 13.4583 74.2084 13.3333 73.7084 13.3333C72.5001 13.3333 71.5417 13.7083 70.7917 14.5C70.0417 15.2917 69.7084 16.3333 69.7084 17.6667C69.7084 18.9583 70.0834 20 70.7917 20.7083C71.5001 21.4167 72.4584 21.7917 73.6668 21.7917ZM85.2918 10.875C85.5418 10.875 85.7501 10.875 85.9584 10.9167C86.1668 10.9583 86.3334 11 86.4584 11.0417V14.125C86.2918 14 86.0834 13.875 85.7501 13.7917C85.4168 13.7083 85.0834 13.625 84.6251 13.625C83.8751 13.625 83.2501 13.9583 82.7501 14.5833C82.2501 15.2083 81.9584 16.1667 81.9584 17.5V24H78.9167V11.0833H81.9584V13.125H82.0001C82.2918 12.4167 82.7084 11.875 83.2501 11.4583C83.8334 11.0833 84.5001 10.875 85.2918 10.875ZM86.6251 17.75C86.6251 15.625 87.2501 13.9167 88.4168 12.6667C89.6251 11.4167 91.2918 10.7917 93.4168 10.7917C95.4168 10.7917 97.0001 11.375 98.1251 12.5833C99.2501 13.7917 99.8334 15.4167 99.8334 17.4583C99.8334 19.5417 99.2084 21.2083 98.0418 22.4583C96.8334 23.7083 95.2084 24.3333 93.1251 24.3333C91.1251 24.3333 89.5418 23.75 88.3751 22.5833C87.2084 21.375 86.6251 19.75 86.6251 17.75ZM89.7918 17.625C89.7918 18.9583 90.0834 20 90.7084 20.7083C91.3334 21.4167 92.2084 21.7917 93.3334 21.7917C94.4168 21.7917 95.2918 21.4583 95.8751 20.7083C96.4584 20 96.7501 18.9583 96.7501 17.5417C96.7501 16.1667 96.4584 15.125 95.8751 14.375C95.2918 13.6667 94.4168 13.2917 93.3751 13.2917C92.2501 13.2917 91.4167 13.6667 90.7917 14.4167C90.0834 15.2083 89.7918 16.25 89.7918 17.625ZM104.375 14.5C104.375 14.9167 104.5 15.2917 104.792 15.5417C105.083 15.7917 105.667 16.0833 106.625 16.4583C107.833 16.9583 108.708 17.5 109.167 18.0833C109.667 18.7083 109.917 19.4167 109.917 20.2917C109.917 21.5 109.458 22.4583 108.5 23.2083C107.583 23.9583 106.292 24.2917 104.708 24.2917C104.167 24.2917 103.583 24.2083 102.917 24.0833C102.25 23.9583 101.708 23.7917 101.25 23.5833V20.5833C101.792 20.9583 102.417 21.2917 103.042 21.5C103.667 21.7083 104.25 21.8333 104.792 21.8333C105.458 21.8333 106 21.75 106.292 21.5417C106.625 21.3333 106.792 21.0417 106.792 20.5833C106.792 20.1667 106.625 19.8333 106.292 19.5C105.958 19.2083 105.292 18.875 104.375 18.5C103.25 18.0417 102.458 17.5 102 16.9167C101.542 16.3333 101.292 15.5833 101.292 14.6667C101.292 13.5 101.75 12.5417 102.667 11.7917C103.583 11.0417 104.792 10.6667 106.25 10.6667C106.708 10.6667 107.208 10.7083 107.75 10.8333C108.292 10.9583 108.792 11.0833 109.167 11.2083V14.1667C108.75 13.9167 108.292 13.6667 107.75 13.4583C107.208 13.25 106.667 13.1667 106.167 13.1667C105.583 13.1667 105.125 13.2917 104.833 13.5C104.542 13.7917 104.375 14.0833 104.375 14.5ZM111.208 17.75C111.208 15.625 111.833 13.9167 113 12.6667C114.208 11.4167 115.875 10.7917 118 10.7917C120 10.7917 121.583 11.375 122.708 12.5833C123.833 13.7917 124.417 15.4167 124.417 17.4583C124.417 19.5417 123.792 21.2083 122.625 22.4583C121.417 23.7083 119.792 24.3333 117.708 24.3333C115.708 24.3333 114.125 23.75 112.958 22.5833C111.833 21.375 111.208 19.75 111.208 17.75ZM114.375 17.625C114.375 18.9583 114.667 20 115.292 20.7083C115.917 21.4167 116.792 21.7917 117.917 21.7917C119 21.7917 119.875 21.4583 120.458 20.7083C121.042 20 121.333 18.9583 121.333 17.5417C121.333 16.1667 121.042 15.125 120.458 14.375C119.875 13.6667 119 13.2917 117.958 13.2917C116.833 13.2917 116 13.6667 115.375 14.4167C114.708 15.2083 114.375 16.25 114.375 17.625ZM134.542 13.5833H130V24H126.917V13.5833H124.75V11.0833H126.917V9.29166C126.917 7.95832 127.375 6.83332 128.25 5.95832C129.125 5.08332 130.25 4.66666 131.625 4.66666C132 4.66666 132.333 4.70832 132.625 4.70832C132.917 4.70832 133.167 4.79166 133.375 4.87499V7.49999C133.292 7.45832 133.083 7.37499 132.833 7.29166C132.583 7.20832 132.292 7.16666 131.958 7.16666C131.333 7.16666 130.833 7.37499 130.5 7.74999C130.167 8.12499 130 8.74999 130 9.49999V11.0417H134.542V8.12499L137.583 7.20832V11.0417H140.667V13.5417H137.583V19.5833C137.583 20.375 137.75 20.9167 138 21.25C138.292 21.5833 138.75 21.75 139.375 21.75C139.542 21.75 139.75 21.7083 140 21.625C140.25 21.5417 140.458 21.4583 140.625 21.3333V23.8333C140.417 23.9583 140.125 24.0417 139.667 24.125C139.208 24.2083 138.792 24.25 138.333 24.25C137.042 24.25 136.083 23.9167 135.458 23.25C134.833 22.5833 134.5 21.5417 134.5 20.1667L134.542 13.5833Z" fill="#B1B5C4"/>
<path d="M14.25 0H0V14.25H14.25V0Z" fill="#B1B5C4"/>
<path d="M30 0H15.75V14.25H30V0Z" fill="#B1B5C4"/>
<path d="M14.25 15.75H0V30H14.25V15.75Z" fill="#B1B5C4"/>
<path d="M30 15.75H15.75V30H30V15.75Z" fill="#B1B5C4"/>
</g>
<defs>
<clipPath id="clip0_16_2">
<rect width="140.667" height="30" fill="white"/>
</clipPath>
</defs>
</svg>
