<svg width="165" height="30" viewBox="0 0 165 30" fill="none" xmlns="http://www.w3.org/2000/svg">
<g clip-path="url(#clip0_9_1062)">
<path d="M44.8627 8.60417C45.3002 8.60417 45.6752 8.95833 45.6752 9.41667V24.9375C45.6752 25.375 45.2793 25.7292 44.8627 25.7292H42.7585C42.3627 25.7292 41.9668 25.4167 41.9668 24.9792V23.5417C40.9043 25.1042 39.071 26.1875 36.4043 26.1875C31.946 26.1875 29.196 23.2292 29.196 18.8333V9.375C29.196 8.9375 29.5918 8.58333 30.0085 8.58333H32.1127C32.5502 8.58333 32.9043 8.9375 32.9043 9.375V18.2292C32.9043 21.0833 34.4043 22.9792 37.3627 22.9792C40.2585 22.9792 41.9668 21.0208 41.9668 18.2708V9.375C41.9668 8.9375 42.3627 8.58333 42.7585 8.58333H44.8627V8.60417ZM13.821 0C6.61267 0 0.800171 5.60417 0.800171 13.0833C0.800171 20.5833 6.61267 26.1667 13.821 26.1667C15.0502 26.1667 16.2377 26 17.3627 25.6875L18.7793 29.3333C18.9252 29.7292 19.2168 29.9792 19.7377 29.9792H21.9877C22.5293 29.9792 22.9252 29.625 22.6752 28.9375L20.8418 24.1667C24.446 21.8958 26.8418 17.875 26.8418 13.0625C26.8418 5.60417 21.0293 0 13.821 0ZM19.4877 20.6875L17.8418 16.4167C17.696 16.0625 17.4043 15.7292 16.7793 15.7292H14.6335C14.0918 15.7292 13.6752 16.0833 13.9252 16.7708L16.0918 22.375C15.3835 22.5625 14.6127 22.6458 13.821 22.6458C8.55017 22.6458 4.80017 18.5 4.80017 13.0833C4.80017 7.66667 8.55017 3.52083 13.821 3.52083C19.0918 3.52083 22.8418 7.66667 22.8418 13.0833C22.8418 16.25 21.571 18.9583 19.4877 20.6875ZM163.988 24.8542C164.175 25.2917 163.946 25.7083 163.425 25.7083H161.071C160.634 25.7083 160.279 25.5 160.134 25.0625L155.779 13.3542L151.363 25.0625C151.175 25.5208 150.863 25.7083 150.425 25.7083H148.321C147.883 25.7083 147.571 25.5208 147.383 25.0625L142.925 13.2917L138.529 25.0625C138.342 25.5 138.029 25.7083 137.592 25.7083H135.384C134.946 25.7083 134.634 25.5 134.446 25.0625L130.092 13.2917L125.592 25.0625C125.404 25.5208 125.092 25.7083 124.654 25.7083H122.55C122.113 25.7083 121.8 25.5208 121.613 25.0625L117.217 13.2917L112.821 25.0625C112.675 25.5 112.321 25.7083 111.884 25.7083H109.592C109.05 25.7083 108.842 25.2708 109.029 24.8542L114.988 9.27083C115.175 8.8125 115.488 8.58333 115.925 8.58333H118.488C118.925 8.58333 119.238 8.79167 119.425 9.27083L123.717 20.6458L127.967 9.27083C128.154 8.8125 128.467 8.58333 128.904 8.58333H131.425C131.863 8.58333 132.175 8.79167 132.363 9.27083L136.571 20.6458L140.779 9.27083C140.967 8.8125 141.279 8.58333 141.717 8.58333H144.258C144.696 8.58333 145.008 8.79167 145.196 9.27083L149.467 20.6458L153.633 9.27083C153.821 8.8125 154.133 8.58333 154.571 8.58333H157.134C157.571 8.58333 157.884 8.79167 158.071 9.27083L163.988 24.8542ZM65.2585 8.60417H63.1543C62.7168 8.60417 62.3418 8.95833 62.3418 9.41667V10.8333C61.2793 9.22917 59.196 8.08333 56.7377 8.08333C52.0918 8.08333 48.1127 11.75 48.1127 17.1042C48.1127 22.5208 52.1127 26.1667 56.7168 26.1667C59.2168 26.1667 61.2377 25.0208 62.3627 23.4167V24.9167C62.3627 25.3542 62.7585 25.7083 63.1752 25.7083H65.2793C65.7168 25.7083 66.071 25.3542 66.071 24.9167V9.41667C66.0502 8.95833 65.696 8.60417 65.2585 8.60417ZM57.1335 22.75C54.071 22.75 51.8835 20.25 51.8835 17.1458C51.8835 14 54.0502 11.5833 57.1335 11.5833C60.1752 11.5833 62.3835 14 62.3835 17.1458C62.3627 20.2708 60.1543 22.75 57.1335 22.75ZM90.3627 23.2917C90.821 23.8542 90.4252 24.2917 90.1752 24.4792C88.7168 25.5833 86.7793 26.1875 84.6752 26.1875C79.3627 26.1875 75.821 22.2917 75.821 17.1667C75.821 12.0417 79.3627 8.10417 84.6752 8.10417C86.7793 8.10417 88.696 8.70833 90.1752 9.8125C90.4252 10 90.7793 10.375 90.3627 11L89.3627 12.3958C88.9668 12.9375 88.5085 12.7917 88.1127 12.5417C87.1752 11.9792 86.071 11.5 84.8002 11.5C81.696 11.5 79.6335 14 79.6335 17.1667C79.6335 20.3333 81.696 22.8125 84.8002 22.8125C86.0918 22.8125 87.1127 22.3125 88.0502 21.7708C88.446 21.5625 88.8627 21.375 89.3002 21.9583L90.3627 23.2917ZM100.279 8.125C95.2793 8.125 91.3002 12.0417 91.3002 17.1458C91.3002 22.2917 95.3002 26.1667 100.279 26.1667C105.279 26.1667 109.259 22.2708 109.259 17.1458C109.279 12.0625 105.279 8.125 100.279 8.125ZM100.279 22.7292C97.2168 22.7292 95.0293 20.2708 95.0293 17.1667C95.0293 14.0208 97.196 11.6042 100.279 11.6042C103.342 11.6042 105.529 14.0208 105.529 17.1667C105.529 20.2708 103.363 22.7292 100.279 22.7292ZM72.6335 0.458333C73.0918 0.458333 73.4252 0.854167 73.4252 1.27083V24.8958C73.4252 25.3333 73.1127 25.7083 72.6335 25.7083H70.5293C70.0918 25.7083 69.7168 25.3125 69.7168 24.8958V1.29167C69.7168 0.854167 70.1127 0.479167 70.5293 0.479167H72.6335" fill="#B1B5C4"/>
</g>
<defs>
<clipPath id="clip0_9_1062">
<rect width="163.25" height="30" fill="white" transform="translate(0.800171)"/>
</clipPath>
</defs>
</svg>
