<svg width="171" height="30" viewBox="0 0 171 30" fill="none" xmlns="http://www.w3.org/2000/svg">
<g clip-path="url(#clip0_9_798)">
<path d="M21.4178 27.6196C19.1754 26.2153 17.5242 21.3687 17.5242 15.6107C17.5242 15.3994 17.5251 15.1908 17.5304 14.9831L17.5331 14.9857C11.2973 14.0059 6.79119 11.3204 6.67617 8.14545L6.65745 8.182C5.13104 10.0784 4.25996 12.2708 4.25996 14.6068C4.25996 21.481 11.8055 27.1132 21.3767 27.6116L21.4178 27.6196ZM1.37744 15.1088C1.37744 7.41702 10.9496 1.18033 22.7578 1.18033C34.5661 1.18033 44.1382 7.41702 44.1382 15.1088C44.1382 22.8005 34.5661 29.0372 22.7578 29.0372C10.9496 29.0372 1.37744 22.8005 1.37744 15.1088ZM22.7578 3.18998C25.0376 3.18998 26.9759 6.64757 27.6946 11.4729L27.6972 11.4657C32.132 10.7756 35.2374 9.18237 35.2374 7.32964C35.2374 4.8421 29.6498 2.82888 22.7578 2.82888C15.8658 2.82888 10.2782 4.84299 10.2782 7.32964C10.2782 9.18237 13.3827 10.7748 17.8184 11.4657L17.8211 11.4729C18.5397 6.64846 20.4789 3.18998 22.7578 3.18998ZM24.138 27.6116C33.7093 27.1132 41.2557 21.481 41.2557 14.6068C41.2557 12.2708 40.3837 10.0784 38.8582 8.182L38.8395 8.14545C38.7245 11.3204 34.2192 14.0059 27.9826 14.9857L27.9852 14.9831C27.9897 15.1908 27.9915 15.3994 27.9915 15.6107C27.9915 21.3687 26.3385 26.2153 24.0979 27.6196L24.138 27.6116ZM22.7578 11.8313C23.7796 11.8313 24.7719 11.7876 25.7215 11.7038L25.7206 11.7047C25.248 8.61175 24.0997 6.42913 22.7578 6.42913C21.416 6.42913 20.2685 8.61175 19.7951 11.7047L19.7942 11.7038C20.7437 11.7876 21.7361 11.8313 22.7578 11.8313ZM22.7578 23.2847C24.4741 23.2847 25.8739 19.713 25.9488 15.2336L25.9577 15.2363C24.9235 15.3317 23.8536 15.3825 22.7578 15.3825C21.6621 15.3825 20.5921 15.3326 19.5579 15.2363L19.5677 15.2336C19.6417 19.7139 21.0415 23.2847 22.7578 23.2847Z" fill="#B1B5C4"/>
<path d="M110.474 15.1088C110.474 9.22961 115.241 4.46405 121.119 4.46405C127 4.46405 131.766 9.2305 131.766 15.1088C131.766 20.9888 126.999 25.7535 121.119 25.7535C115.241 25.7535 110.474 20.9879 110.474 15.1088ZM121.119 21.8501C124.403 21.8501 127.064 18.8312 127.064 15.1079C127.064 11.3855 124.403 8.36566 121.119 8.36566C117.837 8.36566 115.177 11.3846 115.177 15.1079C115.177 18.8312 117.838 21.8501 121.119 21.8501Z" fill="#B1B5C4"/>
<path d="M143.845 8.89882V25.2702H139.36V8.89882H139.375H133.103V5.19693H150.102V8.89793H143.861H143.845V8.89882Z" fill="#B1B5C4"/>
<path d="M155.528 20.7543L155.523 20.7588L153.802 25.2712H148.564L156.845 5.19785H159.638H162.428L170.71 25.2712H165.471L163.75 20.7588L163.745 20.7543H159.638H155.528ZM159.638 17.3663H162.46L162.458 17.3672L159.657 10.0205H159.617L156.814 17.3672L156.813 17.3663H159.638Z" fill="#B1B5C4"/>
<path d="M61.1648 8.89882V25.2702H56.6792V8.89882H56.6944H50.4211V5.19693H67.4211V8.89793H61.18H61.1648V8.89882Z" fill="#B1B5C4"/>
<path d="M68.5696 15.1088C68.5696 9.22961 73.336 4.46405 79.2161 4.46405C85.0952 4.46405 89.8617 9.2305 89.8617 15.1088C89.8617 20.9888 85.0952 25.7535 79.2161 25.7535C73.336 25.7535 68.5696 20.9879 68.5696 15.1088ZM79.2161 21.8501C82.498 21.8501 85.1603 18.8312 85.1603 15.1079C85.1603 11.3855 82.4989 8.36566 79.2161 8.36566C75.9332 8.36566 73.2718 11.3846 73.2718 15.1079C73.2718 18.8312 75.9332 21.8501 79.2161 21.8501Z" fill="#B1B5C4"/>
<path d="M100.168 25.2702H102.442V17.7425V17.648L110.267 5.19693H105.029L100.168 13.6341L95.3066 5.19693H90.0676L97.8931 17.648V17.7416V25.2693H100.168V25.2702Z" fill="#B1B5C4"/>
</g>
<defs>
<clipPath id="clip0_9_798">
<rect width="170.294" height="30" fill="white" transform="translate(0.48584)"/>
</clipPath>
</defs>
</svg>
