<svg width="131" height="40" viewBox="0 0 131 30" fill="none" xmlns="http://www.w3.org/2000/svg">
<g clip-path="url(#clip0_15_13)">
<path d="M112.7 0C105.9 0 100.3 5.23809 100.3 11.8095C100.3 18.2857 105.8 23.619 112.7 23.619C119.5 23.619 125.1 18.381 125.1 11.8095C125.1 5.23809 119.5 0 112.7 0ZM122.3 5.2381C121.7 5.61905 121 6 120.3 6.38095C119.9 5.61905 119.4 4.85714 118.8 4.19048C119.3 3.90476 119.8 3.52381 120.2 3.2381C121.1 3.71429 121.8 4.47619 122.3 5.2381ZM117.1 1.33333C118.1 1.71429 119 2.19048 119.9 2.85714C119.5 3.2381 119 3.52381 118.5 3.80952C117.9 3.14286 117.2 2.57143 116.5 2C116.7 1.71429 116.9 1.52381 117.1 1.33333ZM118.1 4C117.4 4.38095 116.7 4.57143 116 4.85714C115.7 4.19048 115.4 3.52381 115 2.95238C115.4 2.7619 115.8 2.57143 116.1 2.28571C116.8 2.7619 117.5 3.33333 118.1 4ZM116.6 1.14286C116.4 1.33333 116.2 1.52381 116.1 1.71429C115.4 1.33333 114.8 0.952381 114 0.666667C114.9 0.666667 115.8 0.857143 116.6 1.14286ZM115.7 2C115.4 2.19048 115.1 2.38095 114.8 2.47619C114.4 1.90476 114 1.42857 113.6 0.857143C114.3 1.14286 115 1.52381 115.7 2ZM112.9 0.952381C113.4 1.42857 113.8 2 114.2 2.66667C113.8 2.7619 113.4 2.85714 112.9 2.85714V0.952381ZM112.9 3.33333C113.4 3.33333 114 3.2381 114.5 3.04762C114.9 3.61905 115.2 4.28571 115.5 4.95238C114.7 5.14286 113.8 5.2381 112.9 5.33333V3.33333ZM112.4 0.952381V2.85714C112 2.85714 111.6 2.7619 111.1 2.66667C111.6 2.09524 112 1.52381 112.4 0.952381ZM110.7 2.47619C110.4 2.38095 110 2.19048 109.8 2C110.5 1.61905 111.2 1.2381 111.9 0.952381C111.4 1.42857 111 1.90476 110.7 2.47619ZM111.4 0.571429C110.7 0.857143 110 1.2381 109.3 1.61905C109.1 1.42857 108.9 1.2381 108.8 1.04762C109.6 0.857143 110.5 0.666667 111.4 0.571429ZM119.9 20.7619C118.3 19.9048 118.2 18.6667 118.3 18.2857C118.4 17.8095 118.7 18 118.9 18C120 18 121.1 17.7143 122.5 16.2857C124.1 14.7619 124.6 11.3333 122.1 9.14286C119.5 6.76191 116.7 7.14286 114.9 9.33333C114.5 9.80952 113.6 10.0952 112.9 10.0952C111.7 10.0952 112.5 10.9524 112.5 11.1429C112.5 11.3333 112.3 11.4286 112.2 11.4286C111.8 11.3333 112 11.9048 112 12C112 12.0952 111.8 12.2857 111.8 12.2857C111.3 12.2857 111.4 12.6667 111.5 12.8571C111.5 12.9524 111.5 13.1429 111.3 13.2381C111.1 13.3333 111 13.7143 111 14C111 14.4762 111.5 14.8571 112.3 15.4286C113.1 16 113.2 16.5714 113.2 16.9524C113.2 17.3333 113.3 18 113.4 18.381C113.6 18.8571 113.6 19.8095 112.5 19.8095C111.1 19.9048 108.7 20.8571 108.5 20.9524C107.7 21.2381 106.7 21.3333 105.9 21.1429C105.5 20.8571 105.1 20.5714 104.7 20.1905C104.5 19.7143 104.8 19.1429 105.1 18.7619C105.6 19.2381 106.2 19.1429 106.6 19.1429C107 19.1429 108.8 18.8571 109.1 18.7619C109.4 18.6667 109.5 18.6667 109.6 18.7619C110.3 19.0476 111.3 19.0476 111.7 17.8095C112.1 16.4762 111.2 16.8571 111 16.9524C110.9 17.0476 110.7 16.9524 110.8 16.8571C111 16.5714 110.7 16.5714 110.6 16.5714C110.2 16.5714 109.7 16.9524 109.6 17.0476C109.4 17.1429 109.3 17.1429 109.2 17.1429C108.7 16.8571 107.2 17.2381 106.7 16.4762C106.7 16.2857 106.3 13.1429 106.1 12.5714C106.1 12.4762 106 12.2857 106.2 12.0952C106.6 11.5238 107.6 12.0952 108.2 12.0952C108.9 12.0952 109 11.8095 109.2 11.619C109.4 11.4286 109.5 11.5238 109.6 11.4286C109.7 11.3333 109.6 11.2381 109.6 11.1429C109.6 11.0476 109.7 11.1429 109.8 11.0476C109.9 10.9524 109.8 10.7619 109.8 10.6667C110 10.381 110.4 10.5714 110.2 10C110.1 9.61905 110.3 9.2381 110.5 9.04762C110.8 8.66667 112.1 6.95238 109.9 5.14286C107.8 3.42857 105.6 3.61905 104.2 5.04762C102.8 6.47619 103.5 8.57143 103.6 9.14286C103.7 9.71429 103.3 10.1905 102.8 10.381C102.4 10.5714 101.5 11.1429 100.9 11.619C101 7.04762 103.9 3.04762 108.3 1.42857C108.5 1.61905 108.7 1.90476 108.9 2.09524C108.4 2.47619 107.3 3.33333 107.3 3.33333C107.3 3.33333 107.4 3.33333 107.6 3.42857C107.7 3.42857 107.9 3.52381 107.9 3.52381C107.9 3.52381 108.8 2.7619 109.3 2.47619C109.6 2.7619 110 2.95238 110.4 3.14286C110.2 3.52381 109.6 4.47619 109.6 4.47619C109.6 4.47619 109.7 4.57143 109.8 4.57143C109.9 4.66667 110 4.66667 110 4.66667C110 4.66667 110.6 3.61905 110.8 3.2381C111.3 3.42857 111.8 3.52381 112.3 3.52381V5.42857C112 5.42857 111.3 5.42857 111 5.33333H110.8L110.9 5.52381C111 5.61905 111 5.71429 111.1 5.80952C111.3 5.80952 112 5.80952 112.3 5.80952V9.33333H112.8V8.47619C113.6 8.47619 114.2 8.38095 114.9 8.28571L115.6 7.71429H115.2C114.4 7.80952 113.7 7.90476 113.1 7.90476C113.1 7.90476 112.9 7.90476 112.8 7.90476V5.71429C113.7 5.71429 114.7 5.61905 115.6 5.33333C115.8 5.90476 116.3 7.33333 116.3 7.33333L116.8 7.14286C116.8 7.14286 116.3 5.71429 116.1 5.14286C116.9 4.95238 117.6 4.57143 118.3 4.28571C118.9 4.95238 119.4 5.71429 119.8 6.47619C119.4 6.66667 118.8 6.85714 118.8 6.85714C119.3 6.95238 119.7 7.04762 119.7 7.04762C119.7 7.04762 119.9 6.95238 120 6.95238C120 7.04762 120.1 7.2381 120.1 7.2381L120.8 7.52381L120.7 7.33333C120.7 7.33333 120.5 6.85714 120.4 6.7619C121.1 6.47619 121.8 6.09524 122.5 5.61905C123.8 7.42857 124.4 9.61905 124.4 11.8095C124.6 15.4286 122.7 18.6667 119.9 20.7619Z" fill="#B1B5C4"/>
<path d="M99.1999 3.14286L98.9999 3.33334C98.2999 3.90477 96.5999 5.52381 96.8999 7.33334V7.42858L96.9999 7.80953L97.1999 7.61905C98.1999 6.76191 98.9999 5.2381 99.2999 3.52381L99.3999 3.04762L99.1999 3.14286Z" fill="#B1B5C4"/>
<path d="M95.8 6.19048L95.7 6.38095C95.6 6.66667 95.4 7.33333 95.3 8.09524C95.1 9.23809 95.2 10.9524 96.2 12.1905L96.3 12.381L96.4 12.5714L96.6 11.8095C96.8 10.4762 96.5 7.71429 96 6.47619L95.8 6.09524V6.19048Z" fill="#B1B5C4"/>
<path d="M94.5999 10.9524V11.1429C94.4999 12.2857 94.5999 15.2381 97.0999 16.8571L97.3999 17.0476V16.6667C97.3999 15.5238 95.9999 12.1905 94.9999 11.0476L94.6999 10.6667L94.5999 10.9524Z" fill="#B1B5C4"/>
<path d="M95 16.1905V16.381C95.4 18.0952 97 20.7619 99.6 21.619L100 21.7143L99.9 21.3333C99.4 20.0952 96.9 17.1429 95.3 16.1905L95 16V16.1905Z" fill="#B1B5C4"/>
<path d="M100.3 5.71429L100 5.80953C98.1 6.95238 97.2 8.28572 97.2 10V10.381L97.5 10.1905C98.5 9.33333 99.9 7.2381 100.2 6.09524L100.3 5.61905V5.71429Z" fill="#B1B5C4"/>
<path d="M99.1001 9.33334L99.0001 9.52381C98.5001 10 96.9001 11.6191 97.0001 13.6191C97.0001 13.9048 97.1001 14.2857 97.2001 14.5714L97.3001 14.8571L97.5001 14.5714C98.3001 13.5238 99.3001 10.8571 99.2001 9.61905V9.2381L99.1001 9.33334Z" fill="#B1B5C4"/>
<path d="M99.1999 12.8571L99.0999 13.0476C98.2999 14.1905 97.8999 15.3333 97.8999 16.4762C97.8999 17.2381 98.1999 18 98.6999 18.7619L98.8999 19.0476L98.9999 18.7619C99.2999 18.0952 99.5999 16.0952 99.5999 14.4762C99.5999 13.9048 99.4999 13.4286 99.3999 13.1429L99.2999 12.7619L99.1999 12.8571Z" fill="#B1B5C4"/>
<path d="M100.1 16.5714L99.9999 16.7619C99.7999 17.5238 99.5999 18.1905 99.6999 18.9524C99.6999 20.4762 100.5 21.7143 101.9 22.5714L102.1 22.6667L102.2 22.381V22.0952C102.2 20.8571 101.2 17.619 100.4 16.6667L100.2 16.381L100.1 16.5714Z" fill="#B1B5C4"/>
<path d="M97.4 21.5238L97.5 21.7143C98.5 23.3333 100.3 25.5238 103.6 24.9524H103.9L103.7 24.7619C103.1 23.9048 99.1 21.7143 97.7 21.5238L97.3 21.4286L97.4 21.5238Z" fill="#B1B5C4"/>
<path d="M102.3 25.7143L101.8 25.8095L102.3 26C104.4 26.8571 107 27.0476 108.6 26.5714C109.2 26.381 109.5 26.0952 109.9 25.7143C112.6 26 115.1 28.0952 116.6 29.8095L116.7 29.9048H116.8C117 29.8095 117.2 29.619 117.3 29.5238L117.4 29.4286L117.3 29.3333C115.8 27.4286 113.4 26.2857 113.3 26.1905C111.1 25.2381 107.3 24.4762 102.3 25.7143Z" fill="#B1B5C4"/>
<path d="M102.4 20.381V20.5714C102.7 22.4762 103.5 24.9524 106.9 24.6667H107.1L107 24.4762C106.8 23.619 103.7 21.1429 102.6 20.4762L102.3 20.2857L102.4 20.381Z" fill="#B1B5C4"/>
<path d="M126 2.95238L126.1 3.42857C126.4 5.14285 127.2 6.66666 128.2 7.52381L128.4 7.71428L128.5 7.33333V7.23809C128.8 5.42857 127.1 3.80952 126.4 3.23809L126.2 3.04762L126 2.95238Z" fill="#B1B5C4"/>
<path d="M129.5 6L129.3 6.38095C128.8 7.61905 128.6 10.381 128.7 11.7143L128.9 12.4762L129 12.381L129.1 12.1905C130.2 10.9524 130.2 9.33333 130 8.09524C129.9 7.2381 129.7 6.66667 129.6 6.38095L129.5 6.19048V6Z" fill="#B1B5C4"/>
<path d="M130.8 10.7619L130.5 11.1429C129.5 12.3809 128.1 15.619 128.1 16.7619V17.1429L128.4 16.9524C130.9 15.4286 131 12.4762 130.9 11.2381V11.0476L130.8 10.7619Z" fill="#B1B5C4"/>
<path d="M130.4 16L130 16.1905C128.4 17.1429 125.9 20.0952 125.4 21.3333L125.3 21.7143L125.7 21.619C128.3 20.8571 130 18.0952 130.3 16.381V16.1905L130.4 16Z" fill="#B1B5C4"/>
<path d="M125.1 5.52381L125.2 6C125.6 7.2381 126.8 9.33333 127.9 10.1905L128.2 10.381V10C128.3 8.28572 127.4 6.95238 125.5 5.80953L125.3 5.71429L125.1 5.52381Z" fill="#B1B5C4"/>
<path d="M126.2 9.2381V9.61905C126.1 10.8571 127.2 13.6191 127.9 14.5714L128.1 14.8571L128.2 14.5714C128.3 14.1905 128.4 13.9048 128.4 13.6191C128.5 11.6191 126.9 10 126.4 9.52381L126.3 9.42857L126.2 9.2381Z" fill="#B1B5C4"/>
<path d="M126.1 12.6667L126 13.0476C125.9 13.3333 125.8 13.8095 125.8 14.381C125.8 16 126 18 126.4 18.6667L126.5 18.9524L126.7 18.6667C127.2 18 127.5 17.2381 127.5 16.381C127.5 15.3333 127.1 14.0952 126.3 12.9524L126.2 12.7619L126.1 12.6667Z" fill="#B1B5C4"/>
<path d="M125.2 16.381L125 16.6667C124.2 17.619 123.2 20.8571 123.2 22.0952C123.2 22.0952 123.2 22.2857 123.2 22.381L123.3 22.6667L123.5 22.5714C124.9 21.7143 125.6 20.4762 125.7 18.9524C125.7 18.2857 125.6 17.5238 125.4 16.7619L125.3 16.5714L125.2 16.381Z" fill="#B1B5C4"/>
<path d="M128.1 21.3333L127.7 21.4286C126.3 21.619 122.3 23.8095 121.7 24.6667L121.5 24.8571H121.8C125.1 25.4286 126.9 23.2381 127.9 21.619L128 21.4286L128.1 21.3333Z" fill="#B1B5C4"/>
<path d="M112.2 26.1905C112.1 26.1905 109.7 27.4286 108.2 29.3333L108.1 29.4286L108.2 29.5238C108.3 29.619 108.6 29.8095 108.7 29.9048H108.8L108.9 29.8095C110.4 28.0952 112.9 25.9048 115.6 25.7143C116 26.0952 116.4 26.381 116.9 26.5714C118.4 27.0476 121.1 26.8571 123.2 26L123.7 25.8095L123.2 25.7143C118.1 24.4762 114.3 25.2381 112.2 26.1905Z" fill="#B1B5C4"/>
<path d="M123 20.1905L122.7 20.381C121.6 21.0476 118.6 23.5238 118.3 24.381L118.2 24.5714H118.4C121.7 24.8571 122.5 22.381 122.9 20.4762V20.2857L123 20.1905Z" fill="#B1B5C4"/>
<path d="M38.6001 1.14286H42.8001V4.76191H38.6001V1.14286ZM39.0001 8.95238H42.5001V26.6667H39.0001V8.95238Z" fill="#B1B5C4"/>
<path d="M12.5 8.95238H16V26.6667H12.6V24.0952H12.5C11.1 26.2857 8.7 27.2381 6.1 27.2381C2.2 27.2381 0 24.3809 0 20.8571V8.95238H3.5V19.4286C3.5 22.4762 4.2 24.7619 7.6 24.7619C9 24.7619 11 24.0952 11.7 22.1905C12.4 20.5714 12.4 18.4762 12.4 18V8.95238H12.5Z" fill="#B1B5C4"/>
<path d="M23 11.5238C24.3 9.33333 26.8 8.38095 28.7 8.38095C30 8.38095 35.7 8.66667 35.7 14.381V26.5714H32.2V15.4286C32.2 12.4762 30.9 10.9524 27.9 10.9524C27.9 10.9524 26 10.8571 24.5 12.2857C24 12.7619 23 13.5238 23 17.0476V26.6667H19.5V8.95238H23V11.5238Z" fill="#B1B5C4"/>
<path d="M57.2 14.5714C57 12.381 55.9 10.8571 53.4 10.8571C50.1 10.8571 48.8 13.619 48.8 17.7143C48.8 21.8095 50.1 24.5714 53.4 24.5714C55.7 24.5714 57.1 23.1429 57.3 20.5714H60.8C60.5 24.5714 57.4 26.9524 53.3 26.9524C47.4 26.9524 45 22.9524 45 17.8095C45 12.6667 47.7 8.38095 53.6 8.38095C57.5 8.38095 60.4 10.7619 60.6 14.5714H57.2V14.5714Z" fill="#B1B5C4"/>
<path d="M66 18.381C65.7 21.4286 67.1 24.6667 70.6 24.6667C73.3 24.6667 74.7 23.619 75.1 21.0476H78.8001C78.2001 25.0476 75 27.0476 70.6 27.0476C64.7 27.0476 62.3 23.0476 62.3 17.9048C62.3 12.7619 65.0001 8.47619 70.9001 8.47619C76.4001 8.57143 79 11.9048 79 16.7619V18.381H66ZM75.4001 16.0952C75.5001 13.1429 74.1 10.8571 70.7 10.8571C67.8 10.8571 66.1 13.2381 66.1 16.0952H75.4001Z" fill="#B1B5C4"/>
<path d="M83 26.4762V11.2381H79.8V8.95238H83V5.14286C83.1 1.33333 86.2 0.285713 88.8 0.285713C89.6 0.285713 90.5 0.476189 91.3 0.666666V3.42857C90.7 3.42857 90.1 3.33333 89.5 3.33333C87.5 3.33333 86.4 3.80952 86.5 5.71428V8.95238H90.8V11.2381H86.5V26.4762H83Z" fill="#B1B5C4"/>
</g>
<defs>
<clipPath id="clip0_15_13">
<rect width="130.9" height="30" fill="white"/>
</clipPath>
</defs>
</svg>
