<svg width="45" height="45" viewBox="0 0 45 45" fill="none" xmlns="http://www.w3.org/2000/svg">
<mask id="mask0_9_900" style="mask-type:alpha" maskUnits="userSpaceOnUse" x="0" y="0" width="45" height="45">
<path fill-rule="evenodd" clip-rule="evenodd" d="M0 0H45V45H0V0Z" fill="white"/>
</mask>
<g mask="url(#mask0_9_900)">
<path fill-rule="evenodd" clip-rule="evenodd" d="M42.418 12.036L40.685 16.2725L31.6565 16.278L33.4095 11.9295H42.3635C38.5785 4.833 31.105 0 22.5 0C13.8955 0 6.42252 4.8315 2.63752 11.928H9.43652C10.745 11.928 11.5435 12.5495 11.8155 13.417L17.1875 28.613L17.73 30.316L18.3565 28.5405L23.1015 16.385C24.075 14.045 24.1865 11.928 29.153 11.928H30.938L26.5225 22.718H37.614L35.833 27.063L24.743 27.067L19.319 40.3205H16.0085L5.83452 15.1485C5.17502 13.605 4.23002 13.034 2.28502 12.615C0.777468 15.6919 -0.00424159 19.0736 1.73094e-05 22.5C1.73094e-05 34.9265 10.0735 45 22.5 45C34.9265 45 45 34.9265 45 22.5C45.0041 18.8538 44.1177 15.2618 42.418 12.036" fill="#B1B5C4"/>
</g>
</svg>
